solid STL generated by MeshLab
  facet normal  7.582213e-01  5.309656e-01 -3.783860e-01
    outer loop
      vertex   1.647416e-01  4.050000e-02 -1.785562e-01
      vertex   2.040000e-01  6.180000e-02 -7.000000e-02
      vertex   2.390000e-01  4.004352e-02 -3.039543e-02
    endloop
  endfacet
  facet normal -7.582213e-01 -5.309656e-01 -3.783860e-01
    outer loop
      vertex  -1.647416e-01 -4.050000e-02 -1.785562e-01
      vertex  -2.040000e-01 -6.180000e-02 -7.000000e-02
      vertex  -2.390000e-01 -4.004352e-02 -3.039543e-02
    endloop
  endfacet
  facet normal  0.000000e+00  9.843559e-01 -1.761914e-01
    outer loop
      vertex  -2.040000e-01  6.180000e-02 -7.000000e-02
      vertex   2.040000e-01  6.180000e-02 -7.000000e-02
      vertex   1.333043e-01  4.050000e-02 -1.890000e-01
    endloop
  endfacet
  facet normal  0.000000e+00  9.843560e-01 -1.761914e-01
    outer loop
      vertex  -2.040000e-01  6.180000e-02 -7.000000e-02
      vertex   1.333043e-01  4.050000e-02 -1.890000e-01
      vertex  -1.333085e-01  4.050000e-02 -1.890000e-01
    endloop
  endfacet
  facet normal  0.000000e+00  1.000000e+00  0.000000e+00
    outer loop
      vertex  -2.040000e-01  6.180000e-02 -7.000000e-02
      vertex  -2.040000e-01  6.180000e-02  9.499490e-11
      vertex   2.040000e-01  6.180000e-02  9.499490e-11
    endloop
  endfacet
  facet normal  0.000000e+00  1.000000e+00  0.000000e+00
    outer loop
      vertex  -2.040000e-01  6.180000e-02 -7.000000e-02
      vertex   2.040000e-01  6.180000e-02  9.499490e-11
      vertex   2.040000e-01  6.180000e-02 -7.000000e-02
    endloop
  endfacet
  facet normal -0.000000e+00 -9.843559e-01 -1.761914e-01
    outer loop
      vertex   2.040000e-01 -6.180000e-02 -7.000000e-02
      vertex  -2.040000e-01 -6.180000e-02 -7.000000e-02
      vertex   1.333085e-01 -4.050000e-02 -1.890000e-01
    endloop
  endfacet
  facet normal  0.000000e+00 -1.000000e+00  0.000000e+00
    outer loop
      vertex   2.040000e-01 -6.180000e-02 -7.000000e-02
      vertex   2.040000e-01 -6.180000e-02  9.499490e-11
      vertex  -2.040000e-01 -6.180000e-02  9.499490e-11
    endloop
  endfacet
  facet normal  0.000000e+00 -1.000000e+00  0.000000e+00
    outer loop
      vertex   2.040000e-01 -6.180000e-02 -7.000000e-02
      vertex  -2.040000e-01 -6.180000e-02  9.499490e-11
      vertex  -2.040000e-01 -6.180000e-02 -7.000000e-02
    endloop
  endfacet
  facet normal -3.454891e-02  9.800078e-01 -1.959368e-01
    outer loop
      vertex  -1.401489e-01  4.050000e-02 -1.877939e-01
      vertex  -2.040000e-01  6.180000e-02 -7.000000e-02
      vertex  -1.333085e-01  4.050000e-02 -1.890000e-01
    endloop
  endfacet
  facet normal -7.973184e-02  9.724479e-01 -2.190616e-01
    outer loop
      vertex  -1.401489e-01  4.050000e-02 -1.877939e-01
      vertex  -1.638977e-01  4.050000e-02 -1.791500e-01
      vertex  -2.040000e-01  6.180000e-02 -7.000000e-02
    endloop
  endfacet
  facet normal -3.454914e-02 -9.800075e-01 -1.959381e-01
    outer loop
      vertex  -1.333043e-01 -4.050000e-02 -1.890000e-01
      vertex  -2.040000e-01 -6.180000e-02 -7.000000e-02
      vertex  -1.401447e-01 -4.050000e-02 -1.877939e-01
    endloop
  endfacet
  facet normal  0.000000e+00 -9.843560e-01 -1.761914e-01
    outer loop
      vertex  -1.333043e-01 -4.050000e-02 -1.890000e-01
      vertex   1.333085e-01 -4.050000e-02 -1.890000e-01
      vertex  -2.040000e-01 -6.180000e-02 -7.000000e-02
    endloop
  endfacet
  facet normal  4.864279e-01  8.737207e-01  0.000000e+00
    outer loop
      vertex   2.390000e-01  4.231439e-02 -2.505347e-02
      vertex   2.040000e-01  6.180000e-02 -7.000000e-02
      vertex   2.040000e-01  6.180000e-02  9.499490e-11
    endloop
  endfacet
  facet normal  3.454914e-02  9.800075e-01 -1.959381e-01
    outer loop
      vertex   1.401447e-01  4.050000e-02 -1.877939e-01
      vertex   1.333043e-01  4.050000e-02 -1.890000e-01
      vertex   2.040000e-01  6.180000e-02 -7.000000e-02
    endloop
  endfacet
  facet normal  8.888915e-01  6.948851e-02 -4.528169e-01
    outer loop
      vertex   2.390000e-01  3.520230e-02 -3.359792e-02
      vertex   2.390000e-01  1.348921e-14 -3.900000e-02
      vertex   1.647416e-01  4.050000e-02 -1.785562e-01
    endloop
  endfacet
  facet normal  1.751820e-01 -9.522184e-01 -2.501828e-01
    outer loop
      vertex   1.647457e-01 -4.050000e-02 -1.785562e-01
      vertex   2.040000e-01 -6.180000e-02 -7.000000e-02
      vertex   1.638977e-01 -4.050000e-02 -1.791500e-01
    endloop
  endfacet
  facet normal -4.864279e-01 -8.737207e-01  0.000000e+00
    outer loop
      vertex  -2.390000e-01 -4.231439e-02 -2.505347e-02
      vertex  -2.040000e-01 -6.180000e-02 -7.000000e-02
      vertex  -2.040000e-01 -6.180000e-02  9.499490e-11
    endloop
  endfacet
  facet normal -7.973305e-02 -9.724471e-01 -2.190649e-01
    outer loop
      vertex  -1.638935e-01 -4.050000e-02 -1.791500e-01
      vertex  -1.401447e-01 -4.050000e-02 -1.877939e-01
      vertex  -2.040000e-01 -6.180000e-02 -7.000000e-02
    endloop
  endfacet
  facet normal -1.751878e-01 -9.522152e-01 -2.501910e-01
    outer loop
      vertex  -1.638935e-01 -4.050000e-02 -1.791500e-01
      vertex  -2.040000e-01 -6.180000e-02 -7.000000e-02
      vertex  -1.647416e-01 -4.050000e-02 -1.785562e-01
    endloop
  endfacet
  facet normal -8.888915e-01 -6.948851e-02 -4.528169e-01
    outer loop
      vertex  -2.390000e-01 -3.520230e-02 -3.359792e-02
      vertex  -2.390000e-01  1.454392e-14 -3.900000e-02
      vertex  -1.647416e-01 -4.050000e-02 -1.785562e-01
    endloop
  endfacet
  facet normal -8.889020e-01  6.948548e-02 -4.527968e-01
    outer loop
      vertex  -1.647457e-01  4.050000e-02 -1.785562e-01
      vertex  -2.390000e-01  1.454392e-14 -3.900000e-02
      vertex  -2.390000e-01  3.520230e-02 -3.359792e-02
    endloop
  endfacet
  facet normal -1.751820e-01  9.522184e-01 -2.501828e-01
    outer loop
      vertex  -1.647457e-01  4.050000e-02 -1.785562e-01
      vertex  -2.040000e-01  6.180000e-02 -7.000000e-02
      vertex  -1.638977e-01  4.050000e-02 -1.791500e-01
    endloop
  endfacet
  facet normal  3.454891e-02 -9.800078e-01 -1.959368e-01
    outer loop
      vertex   1.401489e-01 -4.050000e-02 -1.877939e-01
      vertex   2.040000e-01 -6.180000e-02 -7.000000e-02
      vertex   1.333085e-01 -4.050000e-02 -1.890000e-01
    endloop
  endfacet
  facet normal  7.973184e-02 -9.724479e-01 -2.190616e-01
    outer loop
      vertex   1.401489e-01 -4.050000e-02 -1.877939e-01
      vertex   1.638977e-01 -4.050000e-02 -1.791500e-01
      vertex   2.040000e-01 -6.180000e-02 -7.000000e-02
    endloop
  endfacet
  facet normal  1.736480e-01  0.000000e+00 -9.848078e-01
    outer loop
      vertex   1.401489e-01 -4.050000e-02 -1.877939e-01
      vertex   1.333085e-01 -4.050000e-02 -1.890000e-01
      vertex   1.401489e-01 -3.050000e-02 -1.877939e-01
    endloop
  endfacet
  facet normal -5.313208e-02  0.000000e+00  9.985874e-01
    outer loop
      vertex   3.920000e-02  1.775000e-02  1.294000e-02
      vertex  -2.040000e-01  6.180000e-02  9.499490e-11
      vertex  -2.040000e-01 -6.180000e-02  9.499490e-11
    endloop
  endfacet
  facet normal  0.000000e+00 -1.616434e-01  9.868493e-01
    outer loop
      vertex   3.975000e-02  1.720000e-02  1.294000e-02
      vertex  -2.040000e-01 -6.180000e-02  9.499490e-11
      vertex   2.040000e-01 -6.180000e-02  9.499490e-11
    endloop
  endfacet
  facet normal  2.802054e-02 -1.045768e-01  9.941220e-01
    outer loop
      vertex   3.975000e-02  1.720000e-02  1.294000e-02
      vertex   2.040000e-01 -6.180000e-02  9.499490e-11
      vertex   4.002500e-02  1.727368e-02  1.294000e-02
    endloop
  endfacet
  facet normal  7.529818e-02  1.307252e-02  9.970754e-01
    outer loop
      vertex   4.030000e-02  1.775000e-02  1.294000e-02
      vertex   2.390000e-01  1.274396e-02 -2.000001e-03
      vertex   2.040000e-01  6.180000e-02  9.499490e-11
    endloop
  endfacet
  facet normal  1.736480e-01  0.000000e+00 -9.848078e-01
    outer loop
      vertex   1.333085e-01 -3.050000e-02 -1.890000e-01
      vertex   1.401489e-01 -3.050000e-02 -1.877939e-01
      vertex   1.333085e-01 -4.050000e-02 -1.890000e-01
    endloop
  endfacet
  facet normal  1.736480e-01  1.020590e-05 -9.848078e-01
    outer loop
      vertex   1.333085e-01 -3.050000e-02 -1.890000e-01
      vertex   1.401447e-01  4.050000e-02 -1.877939e-01
      vertex   1.401489e-01 -3.050000e-02 -1.877939e-01
    endloop
  endfacet
  facet normal  1.736480e-01  1.020445e-05 -9.848077e-01
    outer loop
      vertex   1.333085e-01 -3.050000e-02 -1.890000e-01
      vertex   1.333043e-01  4.050000e-02 -1.890000e-01
      vertex   1.401447e-01  4.050000e-02 -1.877939e-01
    endloop
  endfacet
  facet normal -3.420199e-01 -2.009885e-05 -9.396927e-01
    outer loop
      vertex  -1.401489e-01  3.050000e-02 -1.877939e-01
      vertex  -1.401447e-01 -4.050000e-02 -1.877939e-01
      vertex  -1.638935e-01 -4.050000e-02 -1.791500e-01
    endloop
  endfacet
  facet normal -1.736480e-01  0.000000e+00 -9.848078e-01
    outer loop
      vertex  -1.401489e-01  3.050000e-02 -1.877939e-01
      vertex  -1.401489e-01  4.050000e-02 -1.877939e-01
      vertex  -1.333085e-01  4.050000e-02 -1.890000e-01
    endloop
  endfacet
  facet normal  7.320592e-02 -1.157264e-02  9.972497e-01
    outer loop
      vertex   2.390000e-01 -1.274396e-02 -2.000001e-03
      vertex   4.030000e-02  1.775000e-02  1.294000e-02
      vertex   2.040000e-01 -6.180000e-02  9.499490e-11
    endloop
  endfacet
  facet normal  7.497709e-02 -0.000000e+00  9.971853e-01
    outer loop
      vertex   2.390000e-01 -1.274396e-02 -2.000001e-03
      vertex   2.390000e-01  1.274396e-02 -2.000001e-03
      vertex   4.030000e-02  1.775000e-02  1.294000e-02
    endloop
  endfacet
  facet normal  7.459816e-01  5.684271e-01 -3.469900e-01
    outer loop
      vertex   2.390000e-01  4.157200e-02 -2.789153e-02
      vertex   2.390000e-01  4.004352e-02 -3.039543e-02
      vertex   2.040000e-01  6.180000e-02 -7.000000e-02
    endloop
  endfacet
  facet normal  6.536025e-01  7.322016e-01 -1.915320e-01
    outer loop
      vertex   2.390000e-01  4.157200e-02 -2.789153e-02
      vertex   2.040000e-01  6.180000e-02 -7.000000e-02
      vertex   2.390000e-01  4.231439e-02 -2.505347e-02
    endloop
  endfacet
  facet normal  6.241418e-01  6.355382e-01  4.544649e-01
    outer loop
      vertex   2.390000e-01  4.126112e-02 -1.934523e-02
      vertex   2.040000e-01  6.180000e-02  9.499490e-11
      vertex   2.390000e-01  3.955476e-02 -1.695900e-02
    endloop
  endfacet
  facet normal  7.973305e-02  9.724471e-01 -2.190649e-01
    outer loop
      vertex   1.638935e-01  4.050000e-02 -1.791500e-01
      vertex   1.401447e-01  4.050000e-02 -1.877939e-01
      vertex   2.040000e-01  6.180000e-02 -7.000000e-02
    endloop
  endfacet
  facet normal  1.751878e-01  9.522152e-01 -2.501910e-01
    outer loop
      vertex   1.638935e-01  4.050000e-02 -1.791500e-01
      vertex   2.040000e-01  6.180000e-02 -7.000000e-02
      vertex   1.647416e-01  4.050000e-02 -1.785562e-01
    endloop
  endfacet
  facet normal  3.420199e-01  2.010400e-05 -9.396927e-01
    outer loop
      vertex   1.638935e-01  4.050000e-02 -1.791500e-01
      vertex   1.401489e-01 -3.050000e-02 -1.877939e-01
      vertex   1.401447e-01  4.050000e-02 -1.877939e-01
    endloop
  endfacet
  facet normal  8.739075e-01  2.063047e-01 -4.401409e-01
    outer loop
      vertex   2.390000e-01  3.785854e-02 -3.235287e-02
      vertex   2.390000e-01  3.520230e-02 -3.359792e-02
      vertex   1.647416e-01  4.050000e-02 -1.785562e-01
    endloop
  endfacet
  facet normal  8.303626e-01  3.718134e-01 -4.150336e-01
    outer loop
      vertex   2.390000e-01  3.785854e-02 -3.235287e-02
      vertex   1.647416e-01  4.050000e-02 -1.785562e-01
      vertex   2.390000e-01  4.004352e-02 -3.039543e-02
    endloop
  endfacet
  facet normal  9.926286e-01  2.252227e-02 -1.190854e-01
    outer loop
      vertex   2.398000e-01  3.266200e-02 -2.741002e-02
      vertex   2.390000e-01  3.520230e-02 -3.359792e-02
      vertex   2.398000e-01  3.322656e-02 -2.730325e-02
    endloop
  endfacet
  facet normal  9.925147e-01  1.852426e-02 -1.207120e-01
    outer loop
      vertex   2.398000e-01  3.266200e-02 -2.741002e-02
      vertex   2.390000e-01  1.348921e-14 -3.900000e-02
      vertex   2.390000e-01  3.520230e-02 -3.359792e-02
    endloop
  endfacet
  facet normal  8.828093e-01  5.187841e-05 -4.697315e-01
    outer loop
      vertex   1.647457e-01 -3.050000e-02 -1.785562e-01
      vertex   1.647416e-01  4.050000e-02 -1.785562e-01
      vertex   2.390000e-01  1.348921e-14 -3.900000e-02
    endloop
  endfacet
  facet normal  8.828140e-01  0.000000e+00 -4.697227e-01
    outer loop
      vertex   1.647457e-01 -3.050000e-02 -1.785562e-01
      vertex   2.390000e-01  1.348921e-14 -3.900000e-02
      vertex   1.647457e-01 -4.050000e-02 -1.785562e-01
    endloop
  endfacet
  facet normal  5.735812e-01  3.370658e-05 -8.191487e-01
    outer loop
      vertex   1.647457e-01 -3.050000e-02 -1.785562e-01
      vertex   1.638935e-01  4.050000e-02 -1.791500e-01
      vertex   1.647416e-01  4.050000e-02 -1.785562e-01
    endloop
  endfacet
  facet normal  5.735812e-01  0.000000e+00 -8.191487e-01
    outer loop
      vertex   1.647457e-01 -3.050000e-02 -1.785562e-01
      vertex   1.647457e-01 -4.050000e-02 -1.785562e-01
      vertex   1.638977e-01 -4.050000e-02 -1.791500e-01
    endloop
  endfacet
  facet normal  8.889020e-01 -6.948543e-02 -4.527968e-01
    outer loop
      vertex   2.390000e-01 -3.520230e-02 -3.359792e-02
      vertex   1.647457e-01 -4.050000e-02 -1.785562e-01
      vertex   2.390000e-01  1.348921e-14 -3.900000e-02
    endloop
  endfacet
  facet normal  8.739191e-01 -2.062959e-01 -4.401220e-01
    outer loop
      vertex   2.390000e-01 -3.520230e-02 -3.359792e-02
      vertex   2.390000e-01 -3.785854e-02 -3.235287e-02
      vertex   1.647457e-01 -4.050000e-02 -1.785562e-01
    endloop
  endfacet
  facet normal  8.303770e-01 -3.717990e-01 -4.150175e-01
    outer loop
      vertex   2.390000e-01 -4.004352e-02 -3.039543e-02
      vertex   1.647457e-01 -4.050000e-02 -1.785562e-01
      vertex   2.390000e-01 -3.785854e-02 -3.235287e-02
    endloop
  endfacet
  facet normal  7.582118e-01 -5.309979e-01 -3.783597e-01
    outer loop
      vertex   2.390000e-01 -4.004352e-02 -3.039543e-02
      vertex   2.040000e-01 -6.180000e-02 -7.000000e-02
      vertex   1.647457e-01 -4.050000e-02 -1.785562e-01
    endloop
  endfacet
  facet normal -5.704978e-02  0.000000e+00  9.983714e-01
    outer loop
      vertex  -2.390000e-01  1.274396e-02 -2.000001e-03
      vertex  -2.390000e-01 -1.274396e-02 -2.000001e-03
      vertex  -2.040000e-01 -6.180000e-02  9.499490e-11
    endloop
  endfacet
  facet normal -5.704979e-02  0.000000e+00  9.983714e-01
    outer loop
      vertex  -2.390000e-01  1.274396e-02 -2.000001e-03
      vertex  -2.040000e-01 -6.180000e-02  9.499490e-11
      vertex  -2.040000e-01  6.180000e-02  9.499490e-11
    endloop
  endfacet
  facet normal -7.459816e-01 -5.684271e-01 -3.469900e-01
    outer loop
      vertex  -2.390000e-01 -4.157200e-02 -2.789153e-02
      vertex  -2.390000e-01 -4.004352e-02 -3.039543e-02
      vertex  -2.040000e-01 -6.180000e-02 -7.000000e-02
    endloop
  endfacet
  facet normal -6.536025e-01 -7.322016e-01 -1.915320e-01
    outer loop
      vertex  -2.390000e-01 -4.157200e-02 -2.789153e-02
      vertex  -2.040000e-01 -6.180000e-02 -7.000000e-02
      vertex  -2.390000e-01 -4.231439e-02 -2.505347e-02
    endloop
  endfacet
  facet normal -6.241418e-01 -6.355382e-01  4.544649e-01
    outer loop
      vertex  -2.390000e-01 -4.126112e-02 -1.934523e-02
      vertex  -2.040000e-01 -6.180000e-02  9.499490e-11
      vertex  -2.390000e-01 -3.955476e-02 -1.695900e-02
    endloop
  endfacet
  facet normal -9.925171e-01  1.852135e-02 -1.206930e-01
    outer loop
      vertex  -2.398000e-01  3.264173e-02 -2.741208e-02
      vertex  -2.390000e-01  3.520230e-02 -3.359792e-02
      vertex  -2.390000e-01  1.454392e-14 -3.900000e-02
    endloop
  endfacet
  facet normal -9.990637e-01  0.000000e+00  4.326382e-02
    outer loop
      vertex  -2.398000e-01 -3.243857e-02 -2.047385e-02
      vertex  -2.390000e-01 -1.274396e-02 -2.000001e-03
      vertex  -2.390000e-01  1.274396e-02 -2.000001e-03
    endloop
  endfacet
  facet normal -8.739075e-01 -2.063047e-01 -4.401409e-01
    outer loop
      vertex  -2.390000e-01 -3.785854e-02 -3.235287e-02
      vertex  -2.390000e-01 -3.520230e-02 -3.359792e-02
      vertex  -1.647416e-01 -4.050000e-02 -1.785562e-01
    endloop
  endfacet
  facet normal -8.303626e-01 -3.718134e-01 -4.150336e-01
    outer loop
      vertex  -2.390000e-01 -3.785854e-02 -3.235287e-02
      vertex  -1.647416e-01 -4.050000e-02 -1.785562e-01
      vertex  -2.390000e-01 -4.004352e-02 -3.039543e-02
    endloop
  endfacet
  facet normal -9.926733e-01 -2.497247e-02 -1.182199e-01
    outer loop
      vertex  -2.398000e-01 -3.273547e-02 -2.740154e-02
      vertex  -2.390000e-01 -3.520230e-02 -3.359792e-02
      vertex  -2.398000e-01 -3.329764e-02 -2.728279e-02
    endloop
  endfacet
  facet normal -9.925084e-01 -1.853202e-02 -1.207626e-01
    outer loop
      vertex  -2.398000e-01 -3.273547e-02 -2.740154e-02
      vertex  -2.390000e-01  1.454392e-14 -3.900000e-02
      vertex  -2.390000e-01 -3.520230e-02 -3.359792e-02
    endloop
  endfacet
  facet normal -8.828093e-01 -5.187841e-05 -4.697315e-01
    outer loop
      vertex  -1.647457e-01  3.050000e-02 -1.785562e-01
      vertex  -1.647416e-01 -4.050000e-02 -1.785562e-01
      vertex  -2.390000e-01  1.454392e-14 -3.900000e-02
    endloop
  endfacet
  facet normal -8.828140e-01  0.000000e+00 -4.697227e-01
    outer loop
      vertex  -1.647457e-01  3.050000e-02 -1.785562e-01
      vertex  -2.390000e-01  1.454392e-14 -3.900000e-02
      vertex  -1.647457e-01  4.050000e-02 -1.785562e-01
    endloop
  endfacet
  facet normal -5.735812e-01 -3.370658e-05 -8.191487e-01
    outer loop
      vertex  -1.647457e-01  3.050000e-02 -1.785562e-01
      vertex  -1.638935e-01 -4.050000e-02 -1.791500e-01
      vertex  -1.647416e-01 -4.050000e-02 -1.785562e-01
    endloop
  endfacet
  facet normal -5.735812e-01  0.000000e+00 -8.191487e-01
    outer loop
      vertex  -1.647457e-01  3.050000e-02 -1.785562e-01
      vertex  -1.647457e-01  4.050000e-02 -1.785562e-01
      vertex  -1.638977e-01  4.050000e-02 -1.791500e-01
    endloop
  endfacet
  facet normal -7.582118e-01  5.309979e-01 -3.783597e-01
    outer loop
      vertex  -2.390000e-01  4.004352e-02 -3.039543e-02
      vertex  -2.040000e-01  6.180000e-02 -7.000000e-02
      vertex  -1.647457e-01  4.050000e-02 -1.785562e-01
    endloop
  endfacet
  facet normal -4.885704e-02 -1.309120e-02  9.987199e-01
    outer loop
      vertex   3.927369e-02  1.747500e-02  1.294000e-02
      vertex   3.920000e-02  1.775000e-02  1.294000e-02
      vertex  -2.040000e-01 -6.180000e-02  9.499490e-11
    endloop
  endfacet
  facet normal  5.309009e-02 -5.309009e-02  9.971775e-01
    outer loop
      vertex   4.022631e-02  1.747500e-02  1.294000e-02
      vertex   4.002500e-02  1.727368e-02  1.294000e-02
      vertex   2.040000e-01 -6.180000e-02  9.499490e-11
    endloop
  endfacet
  facet normal  6.975752e-02 -1.869146e-02  9.973888e-01
    outer loop
      vertex   4.022631e-02  1.747500e-02  1.294000e-02
      vertex   2.040000e-01 -6.180000e-02  9.499490e-11
      vertex   4.030000e-02  1.775000e-02  1.294000e-02
    endloop
  endfacet
  facet normal  0.000000e+00  2.851235e-01  9.584907e-01
    outer loop
      vertex   3.975000e-02  1.830000e-02  1.294000e-02
      vertex   2.040000e-01  6.180000e-02  9.499490e-11
      vertex  -2.040000e-01  6.180000e-02  9.499490e-11
    endloop
  endfacet
  facet normal -3.420199e-01 -2.009885e-05 -9.396927e-01
    outer loop
      vertex  -1.638977e-01  3.050000e-02 -1.791500e-01
      vertex  -1.401489e-01  3.050000e-02 -1.877939e-01
      vertex  -1.638935e-01 -4.050000e-02 -1.791500e-01
    endloop
  endfacet
  facet normal -5.735812e-01  0.000000e+00 -8.191487e-01
    outer loop
      vertex  -1.638977e-01  3.050000e-02 -1.791500e-01
      vertex  -1.647457e-01  3.050000e-02 -1.785562e-01
      vertex  -1.638977e-01  4.050000e-02 -1.791500e-01
    endloop
  endfacet
  facet normal -5.735812e-01 -3.370658e-05 -8.191487e-01
    outer loop
      vertex  -1.638977e-01  3.050000e-02 -1.791500e-01
      vertex  -1.638935e-01 -4.050000e-02 -1.791500e-01
      vertex  -1.647457e-01  3.050000e-02 -1.785562e-01
    endloop
  endfacet
  facet normal -3.420199e-01  0.000000e+00 -9.396927e-01
    outer loop
      vertex  -1.638977e-01  3.050000e-02 -1.791500e-01
      vertex  -1.638977e-01  4.050000e-02 -1.791500e-01
      vertex  -1.401489e-01  4.050000e-02 -1.877939e-01
    endloop
  endfacet
  facet normal -3.420199e-01  0.000000e+00 -9.396927e-01
    outer loop
      vertex  -1.638977e-01  3.050000e-02 -1.791500e-01
      vertex  -1.401489e-01  4.050000e-02 -1.877939e-01
      vertex  -1.401489e-01  3.050000e-02 -1.877939e-01
    endloop
  endfacet
  facet normal -1.736480e-01  0.000000e+00 -9.848078e-01
    outer loop
      vertex  -1.333085e-01  3.050000e-02 -1.890000e-01
      vertex  -1.401489e-01  3.050000e-02 -1.877939e-01
      vertex  -1.333085e-01  4.050000e-02 -1.890000e-01
    endloop
  endfacet
  facet normal -1.736480e-01 -1.020445e-05 -9.848077e-01
    outer loop
      vertex  -1.333085e-01  3.050000e-02 -1.890000e-01
      vertex  -1.333043e-01 -4.050000e-02 -1.890000e-01
      vertex  -1.401447e-01 -4.050000e-02 -1.877939e-01
    endloop
  endfacet
  facet normal -1.736480e-01 -1.020590e-05 -9.848078e-01
    outer loop
      vertex  -1.333085e-01  3.050000e-02 -1.890000e-01
      vertex  -1.401447e-01 -4.050000e-02 -1.877939e-01
      vertex  -1.401489e-01  3.050000e-02 -1.877939e-01
    endloop
  endfacet
  facet normal  0.000000e+00  0.000000e+00 -1.000000e+00
    outer loop
      vertex  -1.333085e-01  3.050000e-02 -1.890000e-01
      vertex   1.333085e-01 -3.050000e-02 -1.890000e-01
      vertex   1.333085e-01 -4.050000e-02 -1.890000e-01
    endloop
  endfacet
  facet normal  0.000000e+00  0.000000e+00 -1.000000e+00
    outer loop
      vertex  -1.333085e-01  3.050000e-02 -1.890000e-01
      vertex   1.333085e-01 -4.050000e-02 -1.890000e-01
      vertex  -1.333043e-01 -4.050000e-02 -1.890000e-01
    endloop
  endfacet
  facet normal  0.000000e+00  0.000000e+00 -1.000000e+00
    outer loop
      vertex  -1.333085e-01  3.050000e-02 -1.890000e-01
      vertex  -1.333085e-01  4.050000e-02 -1.890000e-01
      vertex   1.333043e-01  4.050000e-02 -1.890000e-01
    endloop
  endfacet
  facet normal  0.000000e+00  0.000000e+00 -1.000000e+00
    outer loop
      vertex  -1.333085e-01  3.050000e-02 -1.890000e-01
      vertex   1.333043e-01  4.050000e-02 -1.890000e-01
      vertex   1.333085e-01 -3.050000e-02 -1.890000e-01
    endloop
  endfacet
  facet normal  6.110954e-01  4.839440e-01  6.263869e-01
    outer loop
      vertex   2.390000e-01  3.723334e-02 -1.516548e-02
      vertex   2.390000e-01  3.955476e-02 -1.695900e-02
      vertex   2.040000e-01  6.180000e-02  9.499490e-11
    endloop
  endfacet
  facet normal  4.954638e-01  3.252342e-01  8.054430e-01
    outer loop
      vertex   2.390000e-01  1.375623e-02 -2.130207e-03
      vertex   2.390000e-01  1.470260e-02 -2.512347e-03
      vertex   2.040000e-01  6.180000e-02  9.499490e-11
    endloop
  endfacet
  facet normal  2.292175e-01  1.241798e-01  9.654215e-01
    outer loop
      vertex   2.390000e-01  1.375623e-02 -2.130207e-03
      vertex   2.040000e-01  6.180000e-02  9.499490e-11
      vertex   2.390000e-01  1.274396e-02 -2.000001e-03
    endloop
  endfacet
  facet normal  9.987214e-01  6.449420e-03  5.014027e-02
    outer loop
      vertex   2.390000e-01  1.375623e-02 -2.130207e-03
      vertex   2.390000e-01  1.274396e-02 -2.000001e-03
      vertex   2.398000e-01  3.251244e-02 -2.047759e-02
    endloop
  endfacet
  facet normal  2.292175e-01 -1.241798e-01  9.654215e-01
    outer loop
      vertex   2.390000e-01 -1.375623e-02 -2.130207e-03
      vertex   2.390000e-01 -1.274396e-02 -2.000001e-03
      vertex   2.040000e-01 -6.180000e-02  9.499490e-11
    endloop
  endfacet
  facet normal  4.954638e-01 -3.252342e-01  8.054430e-01
    outer loop
      vertex   2.390000e-01 -1.375623e-02 -2.130207e-03
      vertex   2.040000e-01 -6.180000e-02  9.499490e-11
      vertex   2.390000e-01 -1.470260e-02 -2.512347e-03
    endloop
  endfacet
  facet normal  6.110954e-01 -4.839440e-01  6.263869e-01
    outer loop
      vertex   2.390000e-01 -3.723334e-02 -1.516548e-02
      vertex   2.040000e-01 -6.180000e-02  9.499490e-11
      vertex   2.390000e-01 -3.955476e-02 -1.695900e-02
    endloop
  endfacet
  facet normal  9.925069e-01  1.042928e-01 -6.366438e-02
    outer loop
      vertex   2.398000e-01  3.539461e-02 -2.553940e-02
      vertex   2.390000e-01  4.004352e-02 -3.039543e-02
      vertex   2.390000e-01  4.157200e-02 -2.789153e-02
    endloop
  endfacet
  facet normal  5.032593e-01  8.635643e-01  3.141293e-02
    outer loop
      vertex   2.390000e-01  4.220775e-02 -2.212185e-02
      vertex   2.390000e-01  4.231439e-02 -2.505347e-02
      vertex   2.040000e-01  6.180000e-02  9.499490e-11
    endloop
  endfacet
  facet normal  5.916028e-01  7.631003e-01  2.601614e-01
    outer loop
      vertex   2.390000e-01  4.220775e-02 -2.212185e-02
      vertex   2.040000e-01  6.180000e-02  9.499490e-11
      vertex   2.390000e-01  4.126112e-02 -1.934523e-02
    endloop
  endfacet
  facet normal  3.420199e-01  2.009885e-05 -9.396927e-01
    outer loop
      vertex   1.638977e-01 -3.050000e-02 -1.791500e-01
      vertex   1.401489e-01 -3.050000e-02 -1.877939e-01
      vertex   1.638935e-01  4.050000e-02 -1.791500e-01
    endloop
  endfacet
  facet normal  5.735812e-01  0.000000e+00 -8.191487e-01
    outer loop
      vertex   1.638977e-01 -3.050000e-02 -1.791500e-01
      vertex   1.647457e-01 -3.050000e-02 -1.785562e-01
      vertex   1.638977e-01 -4.050000e-02 -1.791500e-01
    endloop
  endfacet
  facet normal  5.735812e-01  3.370658e-05 -8.191487e-01
    outer loop
      vertex   1.638977e-01 -3.050000e-02 -1.791500e-01
      vertex   1.638935e-01  4.050000e-02 -1.791500e-01
      vertex   1.647457e-01 -3.050000e-02 -1.785562e-01
    endloop
  endfacet
  facet normal  3.420199e-01  0.000000e+00 -9.396927e-01
    outer loop
      vertex   1.638977e-01 -3.050000e-02 -1.791500e-01
      vertex   1.401489e-01 -4.050000e-02 -1.877939e-01
      vertex   1.401489e-01 -3.050000e-02 -1.877939e-01
    endloop
  endfacet
  facet normal  3.420199e-01  0.000000e+00 -9.396927e-01
    outer loop
      vertex   1.638977e-01 -3.050000e-02 -1.791500e-01
      vertex   1.638977e-01 -4.050000e-02 -1.791500e-01
      vertex   1.401489e-01 -4.050000e-02 -1.877939e-01
    endloop
  endfacet
  facet normal  9.925007e-01  9.943213e-02  7.110259e-02
    outer loop
      vertex   2.398000e-01  3.499862e-02 -2.175449e-02
      vertex   2.390000e-01  4.126112e-02 -1.934523e-02
      vertex   2.390000e-01  3.955476e-02 -1.695900e-02
    endloop
  endfacet
  facet normal  9.927115e-01  4.158054e-02 -1.131141e-01
    outer loop
      vertex   2.398000e-01  3.376585e-02 -2.710501e-02
      vertex   2.398000e-01  3.322656e-02 -2.730325e-02
      vertex   2.390000e-01  3.520230e-02 -3.359792e-02
    endloop
  endfacet
  facet normal  9.924853e-01  5.193275e-02 -1.107960e-01
    outer loop
      vertex   2.398000e-01  3.376585e-02 -2.710501e-02
      vertex   2.390000e-01  3.520230e-02 -3.359792e-02
      vertex   2.390000e-01  3.785854e-02 -3.235287e-02
    endloop
  endfacet
  facet normal  9.976212e-01  0.000000e+00 -6.893454e-02
    outer loop
      vertex   2.398000e-01  3.208756e-02 -2.742241e-02
      vertex   2.398000e-01 -3.251244e-02 -2.742241e-02
      vertex   2.390000e-01  1.348921e-14 -3.900000e-02
    endloop
  endfacet
  facet normal  9.973090e-01  1.581182e-03 -7.329524e-02
    outer loop
      vertex   2.398000e-01  3.208756e-02 -2.742241e-02
      vertex   2.390000e-01  1.348921e-14 -3.900000e-02
      vertex   2.398000e-01  3.266200e-02 -2.741002e-02
    endloop
  endfacet
  facet normal  9.924940e-01 -5.190327e-02 -1.107331e-01
    outer loop
      vertex   2.398000e-01 -3.362842e-02 -2.716529e-02
      vertex   2.390000e-01 -3.785854e-02 -3.235287e-02
      vertex   2.390000e-01 -3.520230e-02 -3.359792e-02
    endloop
  endfacet
  facet normal  9.925274e-01 -1.850868e-02 -1.206105e-01
    outer loop
      vertex   2.398000e-01 -3.308108e-02 -2.734009e-02
      vertex   2.390000e-01 -3.520230e-02 -3.359792e-02
      vertex   2.390000e-01  1.348921e-14 -3.900000e-02
    endloop
  endfacet
  facet normal  9.931501e-01 -1.674179e-02 -1.156403e-01
    outer loop
      vertex   2.398000e-01 -3.308108e-02 -2.734009e-02
      vertex   2.390000e-01  1.348921e-14 -3.900000e-02
      vertex   2.398000e-01 -3.251244e-02 -2.742241e-02
    endloop
  endfacet
  facet normal  9.927480e-01 -3.657180e-02 -1.145158e-01
    outer loop
      vertex   2.398000e-01 -3.308108e-02 -2.734009e-02
      vertex   2.398000e-01 -3.362842e-02 -2.716529e-02
      vertex   2.390000e-01 -3.520230e-02 -3.359792e-02
    endloop
  endfacet
  facet normal  4.864279e-01 -8.737207e-01  0.000000e+00
    outer loop
      vertex   2.390000e-01 -4.231439e-02 -2.505347e-02
      vertex   2.040000e-01 -6.180000e-02  9.499490e-11
      vertex   2.040000e-01 -6.180000e-02 -7.000000e-02
    endloop
  endfacet
  facet normal -6.110954e-01 -4.839440e-01  6.263869e-01
    outer loop
      vertex  -2.390000e-01 -3.723334e-02 -1.516548e-02
      vertex  -2.390000e-01 -3.955476e-02 -1.695900e-02
      vertex  -2.040000e-01 -6.180000e-02  9.499490e-11
    endloop
  endfacet
  facet normal -4.954638e-01 -3.252342e-01  8.054430e-01
    outer loop
      vertex  -2.390000e-01 -1.375623e-02 -2.130207e-03
      vertex  -2.390000e-01 -1.470260e-02 -2.512347e-03
      vertex  -2.040000e-01 -6.180000e-02  9.499490e-11
    endloop
  endfacet
  facet normal -2.292175e-01 -1.241798e-01  9.654215e-01
    outer loop
      vertex  -2.390000e-01 -1.375623e-02 -2.130207e-03
      vertex  -2.040000e-01 -6.180000e-02  9.499490e-11
      vertex  -2.390000e-01 -1.274396e-02 -2.000001e-03
    endloop
  endfacet
  facet normal -2.292175e-01  1.241798e-01  9.654215e-01
    outer loop
      vertex  -2.390000e-01  1.375623e-02 -2.130207e-03
      vertex  -2.390000e-01  1.274396e-02 -2.000001e-03
      vertex  -2.040000e-01  6.180000e-02  9.499490e-11
    endloop
  endfacet
  facet normal -4.954638e-01  3.252342e-01  8.054430e-01
    outer loop
      vertex  -2.390000e-01  1.375623e-02 -2.130207e-03
      vertex  -2.040000e-01  6.180000e-02  9.499490e-11
      vertex  -2.390000e-01  1.470260e-02 -2.512347e-03
    endloop
  endfacet
  facet normal -6.110954e-01  4.839440e-01  6.263869e-01
    outer loop
      vertex  -2.390000e-01  3.723334e-02 -1.516548e-02
      vertex  -2.040000e-01  6.180000e-02  9.499490e-11
      vertex  -2.390000e-01  3.955476e-02 -1.695900e-02
    endloop
  endfacet
  facet normal -9.925051e-01 -1.043050e-01 -6.367186e-02
    outer loop
      vertex  -2.398000e-01 -3.513432e-02 -2.596728e-02
      vertex  -2.390000e-01 -4.004352e-02 -3.039543e-02
      vertex  -2.390000e-01 -4.157200e-02 -2.789153e-02
    endloop
  endfacet
  facet normal -5.032593e-01 -8.635643e-01  3.141293e-02
    outer loop
      vertex  -2.390000e-01 -4.220775e-02 -2.212185e-02
      vertex  -2.390000e-01 -4.231439e-02 -2.505347e-02
      vertex  -2.040000e-01 -6.180000e-02  9.499490e-11
    endloop
  endfacet
  facet normal -5.916028e-01 -7.631003e-01  2.601614e-01
    outer loop
      vertex  -2.390000e-01 -4.220775e-02 -2.212185e-02
      vertex  -2.040000e-01 -6.180000e-02  9.499490e-11
      vertex  -2.390000e-01 -4.126112e-02 -1.934523e-02
    endloop
  endfacet
  facet normal -9.925119e-01 -9.935769e-02  7.104937e-02
    outer loop
      vertex  -2.398000e-01 -3.528590e-02 -2.216473e-02
      vertex  -2.390000e-01 -4.126112e-02 -1.934523e-02
      vertex  -2.390000e-01 -3.955476e-02 -1.695900e-02
    endloop
  endfacet
  facet normal -9.926783e-01 -4.407554e-02 -1.124590e-01
    outer loop
      vertex  -2.398000e-01 -3.383259e-02 -2.707313e-02
      vertex  -2.398000e-01 -3.329764e-02 -2.728279e-02
      vertex  -2.390000e-01 -3.520230e-02 -3.359792e-02
    endloop
  endfacet
  facet normal -9.924866e-01 -5.192853e-02 -1.107870e-01
    outer loop
      vertex  -2.398000e-01 -3.383259e-02 -2.707313e-02
      vertex  -2.390000e-01 -3.520230e-02 -3.359792e-02
      vertex  -2.390000e-01 -3.785854e-02 -3.235287e-02
    endloop
  endfacet
  facet normal -9.969301e-01 -3.352792e-03 -7.822573e-02
    outer loop
      vertex  -2.398000e-01 -3.216143e-02 -2.742615e-02
      vertex  -2.390000e-01  1.454392e-14 -3.900000e-02
      vertex  -2.398000e-01 -3.273547e-02 -2.740154e-02
    endloop
  endfacet
  facet normal -8.303770e-01  3.717990e-01 -4.150175e-01
    outer loop
      vertex  -2.390000e-01  3.785854e-02 -3.235287e-02
      vertex  -2.390000e-01  4.004352e-02 -3.039543e-02
      vertex  -1.647457e-01  4.050000e-02 -1.785562e-01
    endloop
  endfacet
  facet normal -8.739191e-01  2.062959e-01 -4.401220e-01
    outer loop
      vertex  -2.390000e-01  3.785854e-02 -3.235287e-02
      vertex  -1.647457e-01  4.050000e-02 -1.785562e-01
      vertex  -2.390000e-01  3.520230e-02 -3.359792e-02
    endloop
  endfacet
  facet normal -4.864279e-01  8.737207e-01  0.000000e+00
    outer loop
      vertex  -2.390000e-01  4.231439e-02 -2.505347e-02
      vertex  -2.040000e-01  6.180000e-02  9.499490e-11
      vertex  -2.040000e-01  6.180000e-02 -7.000000e-02
    endloop
  endfacet
  facet normal -4.005357e-02 -4.005357e-02  9.983944e-01
    outer loop
      vertex   3.947500e-02  1.727368e-02  1.294000e-02
      vertex   3.927369e-02  1.747500e-02  1.294000e-02
      vertex  -2.040000e-01 -6.180000e-02  9.499490e-11
    endloop
  endfacet
  facet normal -2.392304e-02 -8.928309e-02  9.957190e-01
    outer loop
      vertex   3.947500e-02  1.727368e-02  1.294000e-02
      vertex  -2.040000e-01 -6.180000e-02  9.499490e-11
      vertex   3.975000e-02  1.720000e-02  1.294000e-02
    endloop
  endfacet
  facet normal  3.916477e-02  1.461650e-01  9.884846e-01
    outer loop
      vertex   4.002500e-02  1.822631e-02  1.294000e-02
      vertex   2.040000e-01  6.180000e-02  9.499490e-11
      vertex   3.975000e-02  1.830000e-02  1.294000e-02
    endloop
  endfacet
  facet normal -5.067458e-02  1.357830e-02  9.986230e-01
    outer loop
      vertex   3.927369e-02  1.802500e-02  1.294000e-02
      vertex  -2.040000e-01  6.180000e-02  9.499490e-11
      vertex   3.920000e-02  1.775000e-02  1.294000e-02
    endloop
  endfacet
  facet normal  5.851026e-01  3.970953e-01  7.070857e-01
    outer loop
      vertex   2.390000e-01  2.480000e-02 -8.182988e-03
      vertex   2.390000e-01  3.723334e-02 -1.516548e-02
      vertex   2.040000e-01  6.180000e-02  9.499490e-11
    endloop
  endfacet
  facet normal  5.851027e-01  3.970953e-01  7.070857e-01
    outer loop
      vertex   2.390000e-01  2.480000e-02 -8.182988e-03
      vertex   2.040000e-01  6.180000e-02  9.499490e-11
      vertex   2.390000e-01  1.470260e-02 -2.512347e-03
    endloop
  endfacet
  facet normal  9.966918e-01  3.043113e-02  7.536267e-02
    outer loop
      vertex   2.398000e-01  3.362842e-02 -2.073471e-02
      vertex   2.390000e-01  1.470260e-02 -2.512347e-03
      vertex   2.390000e-01  1.375623e-02 -2.130207e-03
    endloop
  endfacet
  facet normal -1.000000e+00 -0.000000e+00  0.000000e+00
    outer loop
      vertex   2.390000e-01 -2.480000e-02 -8.182988e-03
      vertex   2.390000e-01 -3.723334e-02 -1.516548e-02
      vertex   2.390000e-01 -1.470260e-02 -2.512347e-03
    endloop
  endfacet
  facet normal  5.851027e-01 -3.970953e-01  7.070857e-01
    outer loop
      vertex   2.390000e-01 -2.480000e-02 -8.182988e-03
      vertex   2.390000e-01 -1.470260e-02 -2.512347e-03
      vertex   2.040000e-01 -6.180000e-02  9.499490e-11
    endloop
  endfacet
  facet normal  5.851026e-01 -3.970953e-01  7.070857e-01
    outer loop
      vertex   2.390000e-01 -2.480000e-02 -8.182988e-03
      vertex   2.040000e-01 -6.180000e-02  9.499490e-11
      vertex   2.390000e-01 -3.723334e-02 -1.516548e-02
    endloop
  endfacet
  facet normal  9.927500e-01  1.110893e-01 -4.589741e-02
    outer loop
      vertex   2.398000e-01  3.561401e-02 -2.500836e-02
      vertex   2.398000e-01  3.539461e-02 -2.553940e-02
      vertex   2.390000e-01  4.157200e-02 -2.789153e-02
    endloop
  endfacet
  facet normal  9.924966e-01  1.182919e-01 -3.094321e-02
    outer loop
      vertex   2.398000e-01  3.561401e-02 -2.500836e-02
      vertex   2.390000e-01  4.157200e-02 -2.789153e-02
      vertex   2.390000e-01  4.231439e-02 -2.505347e-02
    endloop
  endfacet
  facet normal  9.924985e-01 -7.474565e-02  9.674612e-02
    outer loop
      vertex   2.398000e-01 -3.426516e-02 -2.107930e-02
      vertex   2.390000e-01 -3.723334e-02 -1.516548e-02
      vertex   2.390000e-01 -3.955476e-02 -1.695900e-02
    endloop
  endfacet
  facet normal  9.927511e-01  8.664912e-02  8.328938e-02
    outer loop
      vertex   2.398000e-01  3.460044e-02 -2.134026e-02
      vertex   2.398000e-01  3.499862e-02 -2.175449e-02
      vertex   2.390000e-01  3.955476e-02 -1.695900e-02
    endloop
  endfacet
  facet normal  9.925020e-01  7.472841e-02  9.672379e-02
    outer loop
      vertex   2.398000e-01  3.460044e-02 -2.134026e-02
      vertex   2.390000e-01  3.955476e-02 -1.695900e-02
      vertex   2.390000e-01  3.723334e-02 -1.516548e-02
    endloop
  endfacet
  facet normal  9.924875e-01  1.158006e-01  3.947954e-02
    outer loop
      vertex   2.398000e-01  3.556528e-02 -2.274969e-02
      vertex   2.390000e-01  4.220775e-02 -2.212185e-02
      vertex   2.390000e-01  4.126112e-02 -1.934523e-02
    endloop
  endfacet
  facet normal  9.924902e-01  8.162185e-02 -9.110972e-02
    outer loop
      vertex   2.398000e-01  3.471086e-02 -2.645810e-02
      vertex   2.390000e-01  3.785854e-02 -3.235287e-02
      vertex   2.390000e-01  4.004352e-02 -3.039543e-02
    endloop
  endfacet
  facet normal  9.924856e-01 -8.164703e-02 -9.113783e-02
    outer loop
      vertex   2.398000e-01 -3.460044e-02 -2.655974e-02
      vertex   2.390000e-01 -4.004352e-02 -3.039543e-02
      vertex   2.390000e-01 -3.785854e-02 -3.235287e-02
    endloop
  endfacet
  facet normal  6.241418e-01 -6.355382e-01  4.544649e-01
    outer loop
      vertex   2.390000e-01 -4.126112e-02 -1.934523e-02
      vertex   2.390000e-01 -3.955476e-02 -1.695900e-02
      vertex   2.040000e-01 -6.180000e-02  9.499490e-11
    endloop
  endfacet
  facet normal  6.536025e-01 -7.322016e-01 -1.915320e-01
    outer loop
      vertex   2.390000e-01 -4.157200e-02 -2.789153e-02
      vertex   2.390000e-01 -4.231439e-02 -2.505347e-02
      vertex   2.040000e-01 -6.180000e-02 -7.000000e-02
    endloop
  endfacet
  facet normal  7.459816e-01 -5.684271e-01 -3.469900e-01
    outer loop
      vertex   2.390000e-01 -4.157200e-02 -2.789153e-02
      vertex   2.040000e-01 -6.180000e-02 -7.000000e-02
      vertex   2.390000e-01 -4.004352e-02 -3.039543e-02
    endloop
  endfacet
  facet normal -5.851026e-01 -3.970953e-01  7.070857e-01
    outer loop
      vertex  -2.390000e-01 -2.480000e-02 -8.182988e-03
      vertex  -2.390000e-01 -3.723334e-02 -1.516548e-02
      vertex  -2.040000e-01 -6.180000e-02  9.499490e-11
    endloop
  endfacet
  facet normal -5.851027e-01 -3.970953e-01  7.070857e-01
    outer loop
      vertex  -2.390000e-01 -2.480000e-02 -8.182988e-03
      vertex  -2.040000e-01 -6.180000e-02  9.499490e-11
      vertex  -2.390000e-01 -1.470260e-02 -2.512347e-03
    endloop
  endfacet
  facet normal  1.000000e+00  0.000000e+00 -0.000000e+00
    outer loop
      vertex  -2.390000e-01 -2.480000e-02 -8.182988e-03
      vertex  -2.390000e-01 -1.470260e-02 -2.512347e-03
      vertex  -2.390000e-01 -3.723334e-02 -1.516548e-02
    endloop
  endfacet
  facet normal -9.927275e-01 -5.894692e-02  1.049635e-01
    outer loop
      vertex  -2.398000e-01 -3.407633e-02 -2.095877e-02
      vertex  -2.390000e-01 -3.723334e-02 -1.516548e-02
      vertex  -2.390000e-01 -1.470260e-02 -2.512347e-03
    endloop
  endfacet
  facet normal -9.987218e-01 -6.448383e-03  5.013198e-02
    outer loop
      vertex  -2.398000e-01 -3.300883e-02 -2.054407e-02
      vertex  -2.390000e-01 -1.375623e-02 -2.130207e-03
      vertex  -2.390000e-01 -1.274396e-02 -2.000001e-03
    endloop
  endfacet
  facet normal -9.987412e-01 -6.130164e-03  4.978511e-02
    outer loop
      vertex  -2.398000e-01 -3.300883e-02 -2.054407e-02
      vertex  -2.390000e-01 -1.274396e-02 -2.000001e-03
      vertex  -2.398000e-01 -3.243857e-02 -2.047385e-02
    endloop
  endfacet
  facet normal  1.000000e+00 -0.000000e+00 -0.000000e+00
    outer loop
      vertex  -2.390000e-01  2.480000e-02 -8.182988e-03
      vertex  -2.390000e-01  3.723334e-02 -1.516548e-02
      vertex  -2.390000e-01  1.470260e-02 -2.512347e-03
    endloop
  endfacet
  facet normal -5.851027e-01  3.970953e-01  7.070857e-01
    outer loop
      vertex  -2.390000e-01  2.480000e-02 -8.182988e-03
      vertex  -2.390000e-01  1.470260e-02 -2.512347e-03
      vertex  -2.040000e-01  6.180000e-02  9.499490e-11
    endloop
  endfacet
  facet normal -5.851026e-01  3.970953e-01  7.070857e-01
    outer loop
      vertex  -2.390000e-01  2.480000e-02 -8.182988e-03
      vertex  -2.040000e-01  6.180000e-02  9.499490e-11
      vertex  -2.390000e-01  3.723334e-02 -1.516548e-02
    endloop
  endfacet
  facet normal -9.924895e-01 -1.183484e-01 -3.095803e-02
    outer loop
      vertex  -2.398000e-01 -3.563576e-02 -2.493767e-02
      vertex  -2.390000e-01 -4.157200e-02 -2.789153e-02
      vertex  -2.390000e-01 -4.231439e-02 -2.505347e-02
    endloop
  endfacet
  facet normal -9.924980e-01 -8.157999e-02 -9.106299e-02
    outer loop
      vertex  -2.398000e-01 -3.476363e-02 -2.640628e-02
      vertex  -2.390000e-01 -3.785854e-02 -3.235287e-02
      vertex  -2.390000e-01 -4.004352e-02 -3.039543e-02
    endloop
  endfacet
  facet normal -9.927506e-01 -9.183309e-02 -7.754305e-02
    outer loop
      vertex  -2.398000e-01 -3.476363e-02 -2.640628e-02
      vertex  -2.390000e-01 -4.004352e-02 -3.039543e-02
      vertex  -2.398000e-01 -3.513432e-02 -2.596728e-02
    endloop
  endfacet
  facet normal -9.925051e-01  7.471283e-02  9.670362e-02
    outer loop
      vertex  -2.398000e-01  3.461569e-02 -2.135378e-02
      vertex  -2.390000e-01  3.723334e-02 -1.516548e-02
      vertex  -2.390000e-01  3.955476e-02 -1.695900e-02
    endloop
  endfacet
  facet normal -9.927506e-01  8.713840e-02  8.278378e-02
    outer loop
      vertex  -2.398000e-01  3.461569e-02 -2.135378e-02
      vertex  -2.390000e-01  3.955476e-02 -1.695900e-02
      vertex  -2.398000e-01  3.501143e-02 -2.177033e-02
    endloop
  endfacet
  facet normal -9.924933e-01 -1.157560e-01  3.946435e-02
    outer loop
      vertex  -2.398000e-01 -3.553902e-02 -2.268055e-02
      vertex  -2.390000e-01 -4.220775e-02 -2.212185e-02
      vertex  -2.390000e-01 -4.126112e-02 -1.934523e-02
    endloop
  endfacet
  facet normal -9.927475e-01 -1.079243e-01  5.296135e-02
    outer loop
      vertex  -2.398000e-01 -3.553902e-02 -2.268055e-02
      vertex  -2.390000e-01 -4.126112e-02 -1.934523e-02
      vertex  -2.398000e-01 -3.528590e-02 -2.216473e-02
    endloop
  endfacet
  facet normal -9.974006e-01  1.132463e-03 -7.204784e-02
    outer loop
      vertex  -2.398000e-01  3.206723e-02 -2.742111e-02
      vertex  -2.398000e-01  3.264173e-02 -2.741208e-02
      vertex  -2.390000e-01  1.454392e-14 -3.900000e-02
    endloop
  endfacet
  facet normal -9.976207e-01  5.404175e-06 -6.894172e-02
    outer loop
      vertex  -2.398000e-01  3.206723e-02 -2.742111e-02
      vertex  -2.390000e-01  1.454392e-14 -3.900000e-02
      vertex  -2.398000e-01 -3.216143e-02 -2.742615e-02
    endloop
  endfacet
  facet normal -9.924857e-01  5.193178e-02 -1.107938e-01
    outer loop
      vertex  -2.398000e-01  3.374735e-02 -2.711354e-02
      vertex  -2.390000e-01  3.785854e-02 -3.235287e-02
      vertex  -2.390000e-01  3.520230e-02 -3.359792e-02
    endloop
  endfacet
  facet normal -6.241418e-01  6.355382e-01  4.544649e-01
    outer loop
      vertex  -2.390000e-01  4.126112e-02 -1.934523e-02
      vertex  -2.390000e-01  3.955476e-02 -1.695900e-02
      vertex  -2.040000e-01  6.180000e-02  9.499490e-11
    endloop
  endfacet
  facet normal -9.924979e-01  9.945034e-02  7.111562e-02
    outer loop
      vertex  -2.390000e-01  4.126112e-02 -1.934523e-02
      vertex  -2.398000e-01  3.501143e-02 -2.177033e-02
      vertex  -2.390000e-01  3.955476e-02 -1.695900e-02
    endloop
  endfacet
  facet normal -6.536025e-01  7.322016e-01 -1.915320e-01
    outer loop
      vertex  -2.390000e-01  4.157200e-02 -2.789153e-02
      vertex  -2.390000e-01  4.231439e-02 -2.505347e-02
      vertex  -2.040000e-01  6.180000e-02 -7.000000e-02
    endloop
  endfacet
  facet normal -7.459816e-01  5.684271e-01 -3.469900e-01
    outer loop
      vertex  -2.390000e-01  4.157200e-02 -2.789153e-02
      vertex  -2.040000e-01  6.180000e-02 -7.000000e-02
      vertex  -2.390000e-01  4.004352e-02 -3.039543e-02
    endloop
  endfacet
  facet normal  7.351697e-02  1.969894e-02  9.970994e-01
    outer loop
      vertex   4.022631e-02  1.802500e-02  1.294000e-02
      vertex   4.030000e-02  1.775000e-02  1.294000e-02
      vertex   2.040000e-01  6.180000e-02  9.499490e-11
    endloop
  endfacet
  facet normal  6.210588e-02  6.210588e-02  9.961355e-01
    outer loop
      vertex   4.022631e-02  1.802500e-02  1.294000e-02
      vertex   2.040000e-01  6.180000e-02  9.499490e-11
      vertex   4.002500e-02  1.822631e-02  1.294000e-02
    endloop
  endfacet
  facet normal -3.162592e-02  1.180280e-01  9.925065e-01
    outer loop
      vertex   3.947500e-02  1.822631e-02  1.294000e-02
      vertex   3.975000e-02  1.830000e-02  1.294000e-02
      vertex  -2.040000e-01  6.180000e-02  9.499490e-11
    endloop
  endfacet
  facet normal -4.498814e-02  4.498814e-02  9.979740e-01
    outer loop
      vertex   3.947500e-02  1.822631e-02  1.294000e-02
      vertex  -2.040000e-01  6.180000e-02  9.499490e-11
      vertex   3.927369e-02  1.802500e-02  1.294000e-02
    endloop
  endfacet
  facet normal  0.000000e+00  0.000000e+00  1.000000e+00
    outer loop
      vertex   3.947500e-02  1.822631e-02  1.294000e-02
      vertex   3.927369e-02  1.802500e-02  1.294000e-02
      vertex   3.920000e-02  1.775000e-02  1.294000e-02
    endloop
  endfacet
  facet normal -0.000000e+00  0.000000e+00  1.000000e+00
    outer loop
      vertex   3.947500e-02  1.822631e-02  1.294000e-02
      vertex   4.022631e-02  1.802500e-02  1.294000e-02
      vertex   4.002500e-02  1.822631e-02  1.294000e-02
    endloop
  endfacet
  facet normal  0.000000e+00  0.000000e+00  1.000000e+00
    outer loop
      vertex   3.947500e-02  1.822631e-02  1.294000e-02
      vertex   4.002500e-02  1.822631e-02  1.294000e-02
      vertex   3.975000e-02  1.830000e-02  1.294000e-02
    endloop
  endfacet
  facet normal  0.000000e+00  0.000000e+00  1.000000e+00
    outer loop
      vertex   3.947500e-02  1.822631e-02  1.294000e-02
      vertex   3.920000e-02  1.775000e-02  1.294000e-02
      vertex   3.927369e-02  1.747500e-02  1.294000e-02
    endloop
  endfacet
  facet normal  0.000000e+00  0.000000e+00  1.000000e+00
    outer loop
      vertex   3.947500e-02  1.822631e-02  1.294000e-02
      vertex   3.927369e-02  1.747500e-02  1.294000e-02
      vertex   3.947500e-02  1.727368e-02  1.294000e-02
    endloop
  endfacet
  facet normal  0.000000e+00  0.000000e+00  1.000000e+00
    outer loop
      vertex   3.947500e-02  1.822631e-02  1.294000e-02
      vertex   3.947500e-02  1.727368e-02  1.294000e-02
      vertex   3.975000e-02  1.720000e-02  1.294000e-02
    endloop
  endfacet
  facet normal  0.000000e+00  0.000000e+00  1.000000e+00
    outer loop
      vertex   3.947500e-02  1.822631e-02  1.294000e-02
      vertex   3.975000e-02  1.720000e-02  1.294000e-02
      vertex   4.002500e-02  1.727368e-02  1.294000e-02
    endloop
  endfacet
  facet normal  0.000000e+00  0.000000e+00  1.000000e+00
    outer loop
      vertex   3.947500e-02  1.822631e-02  1.294000e-02
      vertex   4.002500e-02  1.727368e-02  1.294000e-02
      vertex   4.022631e-02  1.747500e-02  1.294000e-02
    endloop
  endfacet
  facet normal  0.000000e+00  0.000000e+00  1.000000e+00
    outer loop
      vertex   3.947500e-02  1.822631e-02  1.294000e-02
      vertex   4.022631e-02  1.747500e-02  1.294000e-02
      vertex   4.030000e-02  1.775000e-02  1.294000e-02
    endloop
  endfacet
  facet normal  0.000000e+00  0.000000e+00  1.000000e+00
    outer loop
      vertex   3.947500e-02  1.822631e-02  1.294000e-02
      vertex   4.030000e-02  1.775000e-02  1.294000e-02
      vertex   4.022631e-02  1.802500e-02  1.294000e-02
    endloop
  endfacet
  facet normal  9.976614e-01  2.079359e-02  6.511015e-02
    outer loop
      vertex   2.398000e-01  3.308108e-02 -2.055991e-02
      vertex   2.398000e-01  3.362842e-02 -2.073471e-02
      vertex   2.390000e-01  1.375623e-02 -2.130207e-03
    endloop
  endfacet
  facet normal  9.986656e-01  7.399272e-03  5.110884e-02
    outer loop
      vertex   2.398000e-01  3.308108e-02 -2.055991e-02
      vertex   2.390000e-01  1.375623e-02 -2.130207e-03
      vertex   2.398000e-01  3.251244e-02 -2.047759e-02
    endloop
  endfacet
  facet normal  9.927331e-01  5.892426e-02  1.049232e-01
    outer loop
      vertex   2.398000e-01  3.413952e-02 -2.099721e-02
      vertex   2.390000e-01  2.480000e-02 -8.182988e-03
      vertex   2.390000e-01  1.470260e-02 -2.512347e-03
    endloop
  endfacet
  facet normal  9.944518e-01  4.805980e-02  9.357355e-02
    outer loop
      vertex   2.398000e-01  3.413952e-02 -2.099721e-02
      vertex   2.390000e-01  1.470260e-02 -2.512347e-03
      vertex   2.398000e-01  3.362842e-02 -2.073471e-02
    endloop
  endfacet
  facet normal  9.927331e-01  5.892426e-02  1.049232e-01
    outer loop
      vertex   2.398000e-01  3.413952e-02 -2.099721e-02
      vertex   2.390000e-01  3.723334e-02 -1.516548e-02
      vertex   2.390000e-01  2.480000e-02 -8.182988e-03
    endloop
  endfacet
  facet normal  9.925686e-01  7.265246e-02  9.761761e-02
    outer loop
      vertex   2.398000e-01  3.413952e-02 -2.099721e-02
      vertex   2.398000e-01  3.460044e-02 -2.134026e-02
      vertex   2.390000e-01  3.723334e-02 -1.516548e-02
    endloop
  endfacet
  facet normal  9.925888e-01 -7.669131e-02  9.426580e-02
    outer loop
      vertex   2.398000e-01 -3.471086e-02 -2.144190e-02
      vertex   2.398000e-01 -3.426516e-02 -2.107930e-02
      vertex   2.390000e-01 -3.955476e-02 -1.695900e-02
    endloop
  endfacet
  facet normal  9.927476e-01 -5.886578e-02  1.048191e-01
    outer loop
      vertex   2.398000e-01 -3.376585e-02 -2.079499e-02
      vertex   2.390000e-01 -1.470260e-02 -2.512347e-03
      vertex   2.390000e-01 -3.723334e-02 -1.516548e-02
    endloop
  endfacet
  facet normal  9.927508e-01 -5.947158e-02  1.044464e-01
    outer loop
      vertex   2.398000e-01 -3.376585e-02 -2.079499e-02
      vertex   2.390000e-01 -3.723334e-02 -1.516548e-02
      vertex   2.398000e-01 -3.426516e-02 -2.107930e-02
    endloop
  endfacet
  facet normal  9.966947e-01 -3.041752e-02  7.532874e-02
    outer loop
      vertex   2.398000e-01 -3.376585e-02 -2.079499e-02
      vertex   2.390000e-01 -1.375623e-02 -2.130207e-03
      vertex   2.390000e-01 -1.470260e-02 -2.512347e-03
    endloop
  endfacet
  facet normal  9.927338e-01  1.091274e-01  5.070203e-02
    outer loop
      vertex   2.398000e-01  3.532318e-02 -2.222862e-02
      vertex   2.398000e-01  3.556528e-02 -2.274969e-02
      vertex   2.390000e-01  4.126112e-02 -1.934523e-02
    endloop
  endfacet
  facet normal  9.925758e-01  1.003642e-01  6.870481e-02
    outer loop
      vertex   2.398000e-01  3.532318e-02 -2.222862e-02
      vertex   2.390000e-01  4.126112e-02 -1.934523e-02
      vertex   2.398000e-01  3.499862e-02 -2.175449e-02
    endloop
  endfacet
  facet normal  9.924862e-01  1.222757e-01  4.447912e-03
    outer loop
      vertex   2.398000e-01  3.577810e-02 -2.387496e-02
      vertex   2.390000e-01  4.231439e-02 -2.505347e-02
      vertex   2.390000e-01  4.220775e-02 -2.212185e-02
    endloop
  endfacet
  facet normal  9.927021e-01  5.966975e-02 -1.047951e-01
    outer loop
      vertex   2.398000e-01  3.426516e-02 -2.682070e-02
      vertex   2.398000e-01  3.376585e-02 -2.710501e-02
      vertex   2.390000e-01  3.785854e-02 -3.235287e-02
    endloop
  endfacet
  facet normal  9.926440e-01  7.640636e-02 -9.391554e-02
    outer loop
      vertex   2.398000e-01  3.426516e-02 -2.682070e-02
      vertex   2.390000e-01  3.785854e-02 -3.235287e-02
      vertex   2.398000e-01  3.471086e-02 -2.645810e-02
    endloop
  endfacet
  facet normal  9.927424e-01  9.021475e-02 -7.952285e-02
    outer loop
      vertex   2.398000e-01  3.509080e-02 -2.602708e-02
      vertex   2.398000e-01  3.471086e-02 -2.645810e-02
      vertex   2.390000e-01  4.004352e-02 -3.039543e-02
    endloop
  endfacet
  facet normal  9.925418e-01  1.034690e-01 -6.445885e-02
    outer loop
      vertex   2.398000e-01  3.509080e-02 -2.602708e-02
      vertex   2.390000e-01  4.004352e-02 -3.039543e-02
      vertex   2.398000e-01  3.539461e-02 -2.553940e-02
    endloop
  endfacet
  facet normal  9.927175e-01 -7.192364e-02 -9.663835e-02
    outer loop
      vertex   2.398000e-01 -3.413952e-02 -2.690279e-02
      vertex   2.398000e-01 -3.460044e-02 -2.655974e-02
      vertex   2.390000e-01 -3.785854e-02 -3.235287e-02
    endloop
  endfacet
  facet normal  9.926172e-01 -5.541290e-02 -1.078902e-01
    outer loop
      vertex   2.398000e-01 -3.413952e-02 -2.690279e-02
      vertex   2.390000e-01 -3.785854e-02 -3.235287e-02
      vertex   2.398000e-01 -3.362842e-02 -2.716529e-02
    endloop
  endfacet
  facet normal  9.925042e-01 -1.182322e-01 -3.092761e-02
    outer loop
      vertex   2.398000e-01 -3.571831e-02 -2.459649e-02
      vertex   2.390000e-01 -4.231439e-02 -2.505347e-02
      vertex   2.390000e-01 -4.157200e-02 -2.789153e-02
    endloop
  endfacet
  facet normal  5.916028e-01 -7.631003e-01  2.601614e-01
    outer loop
      vertex   2.390000e-01 -4.220775e-02 -2.212185e-02
      vertex   2.390000e-01 -4.126112e-02 -1.934523e-02
      vertex   2.040000e-01 -6.180000e-02  9.499490e-11
    endloop
  endfacet
  facet normal  5.032593e-01 -8.635643e-01  3.141293e-02
    outer loop
      vertex   2.390000e-01 -4.220775e-02 -2.212185e-02
      vertex   2.040000e-01 -6.180000e-02  9.499490e-11
      vertex   2.390000e-01 -4.231439e-02 -2.505347e-02
    endloop
  endfacet
  facet normal  9.926763e-01 -1.025355e-01  6.387730e-02
    outer loop
      vertex   2.398000e-01 -3.509080e-02 -2.187292e-02
      vertex   2.390000e-01 -4.126112e-02 -1.934523e-02
      vertex   2.398000e-01 -3.539461e-02 -2.236060e-02
    endloop
  endfacet
  facet normal  9.924868e-01 -9.952410e-02  7.116836e-02
    outer loop
      vertex   2.398000e-01 -3.509080e-02 -2.187292e-02
      vertex   2.390000e-01 -3.955476e-02 -1.695900e-02
      vertex   2.390000e-01 -4.126112e-02 -1.934523e-02
    endloop
  endfacet
  facet normal  9.927295e-01 -9.029406e-02  7.959276e-02
    outer loop
      vertex   2.398000e-01 -3.509080e-02 -2.187292e-02
      vertex   2.398000e-01 -3.471086e-02 -2.144190e-02
      vertex   2.390000e-01 -3.955476e-02 -1.695900e-02
    endloop
  endfacet
  facet normal  9.924890e-01 -1.044163e-01 -6.373976e-02
    outer loop
      vertex   2.398000e-01 -3.532318e-02 -2.567139e-02
      vertex   2.390000e-01 -4.157200e-02 -2.789153e-02
      vertex   2.390000e-01 -4.004352e-02 -3.039543e-02
    endloop
  endfacet
  facet normal -9.951598e-01 -4.302749e-02  8.834933e-02
    outer loop
      vertex  -2.398000e-01 -3.355976e-02 -2.070720e-02
      vertex  -2.398000e-01 -3.407633e-02 -2.095877e-02
      vertex  -2.390000e-01 -1.470260e-02 -2.512347e-03
    endloop
  endfacet
  facet normal -9.966918e-01 -3.043061e-02  7.536123e-02
    outer loop
      vertex  -2.398000e-01 -3.355976e-02 -2.070720e-02
      vertex  -2.390000e-01 -1.470260e-02 -2.512347e-03
      vertex  -2.390000e-01 -1.375623e-02 -2.130207e-03
    endloop
  endfacet
  facet normal -9.978536e-01 -1.859143e-02  6.279045e-02
    outer loop
      vertex  -2.398000e-01 -3.355976e-02 -2.070720e-02
      vertex  -2.390000e-01 -1.375623e-02 -2.130207e-03
      vertex  -2.398000e-01 -3.300883e-02 -2.054407e-02
    endloop
  endfacet
  facet normal -9.925150e-01 -9.928326e-02  7.111088e-02
    outer loop
      vertex  -2.398000e-01 -3.495133e-02 -2.169762e-02
      vertex  -2.398000e-01 -3.528590e-02 -2.216473e-02
      vertex  -2.390000e-01 -3.955476e-02 -1.695900e-02
    endloop
  endfacet
  facet normal -9.924929e-01 -7.477371e-02  9.678242e-02
    outer loop
      vertex  -2.398000e-01 -3.454444e-02 -2.129194e-02
      vertex  -2.390000e-01 -3.955476e-02 -1.695900e-02
      vertex  -2.390000e-01 -3.723334e-02 -1.516548e-02
    endloop
  endfacet
  facet normal -9.926248e-01 -7.029471e-02  9.876550e-02
    outer loop
      vertex  -2.398000e-01 -3.454444e-02 -2.129194e-02
      vertex  -2.390000e-01 -3.723334e-02 -1.516548e-02
      vertex  -2.398000e-01 -3.407633e-02 -2.095877e-02
    endloop
  endfacet
  facet normal -9.927468e-01 -8.488398e-02  8.513848e-02
    outer loop
      vertex  -2.398000e-01 -3.454444e-02 -2.129194e-02
      vertex  -2.398000e-01 -3.495133e-02 -2.169762e-02
      vertex  -2.390000e-01 -3.955476e-02 -1.695900e-02
    endloop
  endfacet
  facet normal -9.925513e-01 -1.047492e-01 -6.220520e-02
    outer loop
      vertex  -2.398000e-01 -3.542770e-02 -2.547325e-02
      vertex  -2.398000e-01 -3.513432e-02 -2.596728e-02
      vertex  -2.390000e-01 -4.157200e-02 -2.789153e-02
    endloop
  endfacet
  facet normal -9.927404e-01 -1.121147e-01 -4.355369e-02
    outer loop
      vertex  -2.398000e-01 -3.542770e-02 -2.547325e-02
      vertex  -2.390000e-01 -4.157200e-02 -2.789153e-02
      vertex  -2.398000e-01 -3.563576e-02 -2.493767e-02
    endloop
  endfacet
  facet normal -9.924855e-01 -1.222814e-01  4.448097e-03
    outer loop
      vertex  -2.398000e-01 -3.577572e-02 -2.380104e-02
      vertex  -2.390000e-01 -4.231439e-02 -2.505347e-02
      vertex  -2.390000e-01 -4.220775e-02 -2.212185e-02
    endloop
  endfacet
  facet normal -9.927284e-01 -6.177324e-02 -1.033168e-01
    outer loop
      vertex  -2.398000e-01 -3.432574e-02 -2.677828e-02
      vertex  -2.398000e-01 -3.383259e-02 -2.707313e-02
      vertex  -2.390000e-01 -3.785854e-02 -3.235287e-02
    endloop
  endfacet
  facet normal -9.925919e-01 -7.866127e-02 -9.259468e-02
    outer loop
      vertex  -2.398000e-01 -3.432574e-02 -2.677828e-02
      vertex  -2.390000e-01 -3.785854e-02 -3.235287e-02
      vertex  -2.398000e-01 -3.476363e-02 -2.640628e-02
    endloop
  endfacet
  facet normal -9.927353e-01  5.891560e-02  1.049078e-01
    outer loop
      vertex  -2.398000e-01  3.415678e-02 -2.100804e-02
      vertex  -2.390000e-01  1.470260e-02 -2.512347e-03
      vertex  -2.390000e-01  3.723334e-02 -1.516548e-02
    endloop
  endfacet
  facet normal -9.925512e-01  7.330847e-02  9.730361e-02
    outer loop
      vertex  -2.398000e-01  3.415678e-02 -2.100804e-02
      vertex  -2.390000e-01  3.723334e-02 -1.516548e-02
      vertex  -2.398000e-01  3.461569e-02 -2.135378e-02
    endloop
  endfacet
  facet normal -9.927189e-01  4.089673e-02 -1.132986e-01
    outer loop
      vertex  -2.398000e-01  3.320691e-02 -2.730862e-02
      vertex  -2.398000e-01  3.374735e-02 -2.711354e-02
      vertex  -2.390000e-01  3.520230e-02 -3.359792e-02
    endloop
  endfacet
  facet normal -9.926143e-01  2.184508e-02 -1.193298e-01
    outer loop
      vertex  -2.398000e-01  3.320691e-02 -2.730862e-02
      vertex  -2.390000e-01  3.520230e-02 -3.359792e-02
      vertex  -2.398000e-01  3.264173e-02 -2.741208e-02
    endloop
  endfacet
  facet normal -9.924887e-01  8.162995e-02 -9.111876e-02
    outer loop
      vertex  -2.398000e-01  3.469613e-02 -2.647217e-02
      vertex  -2.390000e-01  4.004352e-02 -3.039543e-02
      vertex  -2.390000e-01  3.785854e-02 -3.235287e-02
    endloop
  endfacet
  facet normal -5.916028e-01  7.631003e-01  2.601614e-01
    outer loop
      vertex  -2.390000e-01  4.220775e-02 -2.212185e-02
      vertex  -2.390000e-01  4.126112e-02 -1.934523e-02
      vertex  -2.040000e-01  6.180000e-02  9.499490e-11
    endloop
  endfacet
  facet normal -5.032593e-01  8.635643e-01  3.141293e-02
    outer loop
      vertex  -2.390000e-01  4.220775e-02 -2.212185e-02
      vertex  -2.040000e-01  6.180000e-02  9.499490e-11
      vertex  -2.390000e-01  4.231439e-02 -2.505347e-02
    endloop
  endfacet
  facet normal  9.987203e-01 -6.452146e-03  5.016167e-02
    outer loop
      vertex   2.398000e-01 -3.266200e-02 -2.048998e-02
      vertex   2.390000e-01 -1.274396e-02 -2.000001e-03
      vertex   2.390000e-01 -1.375623e-02 -2.130207e-03
    endloop
  endfacet
  facet normal  9.926001e-01  1.183290e-01 -2.726258e-02
    outer loop
      vertex   2.398000e-01  3.574301e-02 -2.444846e-02
      vertex   2.398000e-01  3.561401e-02 -2.500836e-02
      vertex   2.390000e-01  4.231439e-02 -2.505347e-02
    endloop
  endfacet
  facet normal  9.927252e-01  1.201773e-01 -7.352829e-03
    outer loop
      vertex   2.398000e-01  3.574301e-02 -2.444846e-02
      vertex   2.390000e-01  4.231439e-02 -2.505347e-02
      vertex   2.398000e-01  3.577810e-02 -2.387496e-02
    endloop
  endfacet
  facet normal  9.926838e-01  1.200874e-01  1.256393e-02
    outer loop
      vertex   2.398000e-01  3.571831e-02 -2.330351e-02
      vertex   2.398000e-01  3.577810e-02 -2.387496e-02
      vertex   2.390000e-01  4.220775e-02 -2.212185e-02
    endloop
  endfacet
  facet normal  9.926675e-01  1.165109e-01  3.219431e-02
    outer loop
      vertex   2.398000e-01  3.571831e-02 -2.330351e-02
      vertex   2.390000e-01  4.220775e-02 -2.212185e-02
      vertex   2.398000e-01  3.556528e-02 -2.274969e-02
    endloop
  endfacet
  facet normal  9.926755e-01 -1.116565e-01  4.613189e-02
    outer loop
      vertex   2.398000e-01 -3.561401e-02 -2.289164e-02
      vertex   2.398000e-01 -3.539461e-02 -2.236060e-02
      vertex   2.390000e-01 -4.126112e-02 -1.934523e-02
    endloop
  endfacet
  facet normal  9.924868e-01 -1.158062e-01  3.948146e-02
    outer loop
      vertex   2.398000e-01 -3.561401e-02 -2.289164e-02
      vertex   2.390000e-01 -4.126112e-02 -1.934523e-02
      vertex   2.390000e-01 -4.220775e-02 -2.212185e-02
    endloop
  endfacet
  facet normal  9.924987e-01 -1.221745e-01  4.444232e-03
    outer loop
      vertex   2.398000e-01 -3.577810e-02 -2.402504e-02
      vertex   2.390000e-01 -4.220775e-02 -2.212185e-02
      vertex   2.390000e-01 -4.231439e-02 -2.505347e-02
    endloop
  endfacet
  facet normal  9.927508e-01 -1.195383e-01 -1.250649e-02
    outer loop
      vertex   2.398000e-01 -3.577810e-02 -2.402504e-02
      vertex   2.390000e-01 -4.231439e-02 -2.505347e-02
      vertex   2.398000e-01 -3.571831e-02 -2.459649e-02
    endloop
  endfacet
  facet normal  9.926539e-01 -9.983670e-02 -6.834371e-02
    outer loop
      vertex   2.398000e-01 -3.499862e-02 -2.614551e-02
      vertex   2.398000e-01 -3.532318e-02 -2.567139e-02
      vertex   2.390000e-01 -4.004352e-02 -3.039543e-02
    endloop
  endfacet
  facet normal  9.926950e-01 -8.698247e-02 -8.361018e-02
    outer loop
      vertex   2.398000e-01 -3.499862e-02 -2.614551e-02
      vertex   2.390000e-01 -4.004352e-02 -3.039543e-02
      vertex   2.398000e-01 -3.460044e-02 -2.655974e-02
    endloop
  endfacet
  facet normal  9.925560e-01 -1.173896e-01 -3.243711e-02
    outer loop
      vertex   2.398000e-01 -3.556528e-02 -2.515031e-02
      vertex   2.398000e-01 -3.571831e-02 -2.459649e-02
      vertex   2.390000e-01 -4.157200e-02 -2.789153e-02
    endloop
  endfacet
  facet normal  9.927393e-01 -1.090872e-01 -5.068333e-02
    outer loop
      vertex   2.398000e-01 -3.556528e-02 -2.515031e-02
      vertex   2.390000e-01 -4.157200e-02 -2.789153e-02
      vertex   2.398000e-01 -3.532318e-02 -2.567139e-02
    endloop
  endfacet
  facet normal -9.926506e-01 -1.184770e-01 -2.465734e-02
    outer loop
      vertex  -2.398000e-01 -3.575283e-02 -2.437515e-02
      vertex  -2.398000e-01 -3.563576e-02 -2.493767e-02
      vertex  -2.390000e-01 -4.231439e-02 -2.505347e-02
    endloop
  endfacet
  facet normal -9.926974e-01 -1.205349e-01 -4.805348e-03
    outer loop
      vertex  -2.398000e-01 -3.575283e-02 -2.437515e-02
      vertex  -2.390000e-01 -4.231439e-02 -2.505347e-02
      vertex  -2.398000e-01 -3.577572e-02 -2.380104e-02
    endloop
  endfacet
  facet normal -9.927155e-01 -1.195340e-01  1.508172e-02
    outer loop
      vertex  -2.398000e-01 -3.570379e-02 -2.323098e-02
      vertex  -2.398000e-01 -3.577572e-02 -2.380104e-02
      vertex  -2.390000e-01 -4.220775e-02 -2.212185e-02
    endloop
  endfacet
  facet normal -9.926211e-01 -1.161644e-01  3.477286e-02
    outer loop
      vertex  -2.398000e-01 -3.570379e-02 -2.323098e-02
      vertex  -2.390000e-01 -4.220775e-02 -2.212185e-02
      vertex  -2.398000e-01 -3.553902e-02 -2.268055e-02
    endloop
  endfacet
  facet normal -9.966919e-01  3.043052e-02  7.536115e-02
    outer loop
      vertex  -2.398000e-01  3.364722e-02 -2.074254e-02
      vertex  -2.390000e-01  1.375623e-02 -2.130207e-03
      vertex  -2.390000e-01  1.470260e-02 -2.512347e-03
    endloop
  endfacet
  facet normal -9.942281e-01  4.957372e-02  9.514634e-02
    outer loop
      vertex  -2.398000e-01  3.364722e-02 -2.074254e-02
      vertex  -2.390000e-01  1.470260e-02 -2.512347e-03
      vertex  -2.398000e-01  3.415678e-02 -2.100804e-02
    endloop
  endfacet
  facet normal -9.926564e-01  7.579152e-02 -9.428126e-02
    outer loop
      vertex  -2.398000e-01  3.424831e-02 -2.683216e-02
      vertex  -2.398000e-01  3.469613e-02 -2.647217e-02
      vertex  -2.390000e-01  3.785854e-02 -3.235287e-02
    endloop
  endfacet
  facet normal -9.926931e-01  5.909140e-02 -1.052075e-01
    outer loop
      vertex  -2.398000e-01  3.424831e-02 -2.683216e-02
      vertex  -2.390000e-01  3.785854e-02 -3.235287e-02
      vertex  -2.398000e-01  3.374735e-02 -2.711354e-02
    endloop
  endfacet
  facet normal -9.925036e-01  1.043155e-01 -6.367826e-02
    outer loop
      vertex  -2.398000e-01  3.538525e-02 -2.555749e-02
      vertex  -2.390000e-01  4.157200e-02 -2.789153e-02
      vertex  -2.390000e-01  4.004352e-02 -3.039543e-02
    endloop
  endfacet
  facet normal -9.924865e-01  1.158080e-01  3.948209e-02
    outer loop
      vertex  -2.398000e-01  3.557225e-02 -2.276883e-02
      vertex  -2.390000e-01  4.126112e-02 -1.934523e-02
      vertex  -2.390000e-01  4.220775e-02 -2.212185e-02
    endloop
  endfacet
  facet normal  9.984871e-01 -1.021829e-02  5.402970e-02
    outer loop
      vertex   2.398000e-01 -3.322656e-02 -2.059675e-02
      vertex   2.398000e-01 -3.266200e-02 -2.048998e-02
      vertex   2.390000e-01 -1.375623e-02 -2.130207e-03
    endloop
  endfacet
  facet normal  9.971720e-01 -2.592971e-02  7.053817e-02
    outer loop
      vertex   2.398000e-01 -3.322656e-02 -2.059675e-02
      vertex   2.390000e-01 -1.375623e-02 -2.130207e-03
      vertex   2.398000e-01 -3.376585e-02 -2.079499e-02
    endloop
  endfacet
  facet normal  9.990199e-01 -9.547979e-04  4.425274e-02
    outer loop
      vertex   2.398000e-01 -3.208756e-02 -2.047759e-02
      vertex   2.390000e-01 -1.274396e-02 -2.000001e-03
      vertex   2.398000e-01 -3.266200e-02 -2.048998e-02
    endloop
  endfacet
  facet normal  9.990640e-01 -0.000000e+00  4.325510e-02
    outer loop
      vertex   2.398000e-01 -3.208756e-02 -2.047759e-02
      vertex   2.398000e-01  3.251244e-02 -2.047759e-02
      vertex   2.390000e-01  1.274396e-02 -2.000001e-03
    endloop
  endfacet
  facet normal  9.990641e-01  0.000000e+00  4.325511e-02
    outer loop
      vertex   2.398000e-01 -3.208756e-02 -2.047759e-02
      vertex   2.390000e-01  1.274396e-02 -2.000001e-03
      vertex   2.390000e-01 -1.274396e-02 -2.000001e-03
    endloop
  endfacet
  facet normal  9.927300e-01 -1.172902e-01  2.702314e-02
    outer loop
      vertex   2.398000e-01 -3.574301e-02 -2.345154e-02
      vertex   2.398000e-01 -3.561401e-02 -2.289164e-02
      vertex   2.390000e-01 -4.220775e-02 -2.212185e-02
    endloop
  endfacet
  facet normal  9.925876e-01 -1.213042e-01  7.421781e-03
    outer loop
      vertex   2.398000e-01 -3.574301e-02 -2.345154e-02
      vertex   2.390000e-01 -4.220775e-02 -2.212185e-02
      vertex   2.398000e-01 -3.577810e-02 -2.402504e-02
    endloop
  endfacet
  facet normal  1.000000e+00  0.000000e+00  0.000000e+00
    outer loop
      vertex   2.398000e-01 -3.574301e-02 -2.345154e-02
      vertex   2.398000e-01 -3.539461e-02 -2.236060e-02
      vertex   2.398000e-01 -3.561401e-02 -2.289164e-02
    endloop
  endfacet
  facet normal  1.000000e+00  0.000000e+00  0.000000e+00
    outer loop
      vertex   2.398000e-01 -3.574301e-02 -2.345154e-02
      vertex   2.398000e-01 -3.577810e-02 -2.402504e-02
      vertex   2.398000e-01 -3.571831e-02 -2.459649e-02
    endloop
  endfacet
  facet normal  1.000000e+00  0.000000e+00  0.000000e+00
    outer loop
      vertex   2.398000e-01 -3.574301e-02 -2.345154e-02
      vertex   2.398000e-01 -3.509080e-02 -2.187292e-02
      vertex   2.398000e-01 -3.539461e-02 -2.236060e-02
    endloop
  endfacet
  facet normal  1.000000e+00  0.000000e+00  0.000000e+00
    outer loop
      vertex   2.398000e-01 -3.574301e-02 -2.345154e-02
      vertex   2.398000e-01 -3.571831e-02 -2.459649e-02
      vertex   2.398000e-01 -3.556528e-02 -2.515031e-02
    endloop
  endfacet
  facet normal  1.000000e+00  0.000000e+00  0.000000e+00
    outer loop
      vertex   2.398000e-01 -3.574301e-02 -2.345154e-02
      vertex   2.398000e-01 -3.471086e-02 -2.144190e-02
      vertex   2.398000e-01 -3.509080e-02 -2.187292e-02
    endloop
  endfacet
  facet normal  1.000000e+00  0.000000e+00  0.000000e+00
    outer loop
      vertex   2.398000e-01 -3.574301e-02 -2.345154e-02
      vertex   2.398000e-01 -3.556528e-02 -2.515031e-02
      vertex   2.398000e-01 -3.532318e-02 -2.567139e-02
    endloop
  endfacet
  facet normal  1.000000e+00  0.000000e+00  0.000000e+00
    outer loop
      vertex   2.398000e-01 -3.574301e-02 -2.345154e-02
      vertex   2.398000e-01 -3.426516e-02 -2.107930e-02
      vertex   2.398000e-01 -3.471086e-02 -2.144190e-02
    endloop
  endfacet
  facet normal  1.000000e+00  0.000000e+00  0.000000e+00
    outer loop
      vertex   2.398000e-01 -3.574301e-02 -2.345154e-02
      vertex   2.398000e-01 -3.532318e-02 -2.567139e-02
      vertex   2.398000e-01 -3.499862e-02 -2.614551e-02
    endloop
  endfacet
  facet normal  1.000000e+00  0.000000e+00  0.000000e+00
    outer loop
      vertex   2.398000e-01 -3.574301e-02 -2.345154e-02
      vertex   2.398000e-01 -3.376585e-02 -2.079499e-02
      vertex   2.398000e-01 -3.426516e-02 -2.107930e-02
    endloop
  endfacet
  facet normal  1.000000e+00  0.000000e+00  0.000000e+00
    outer loop
      vertex   2.398000e-01 -3.574301e-02 -2.345154e-02
      vertex   2.398000e-01 -3.499862e-02 -2.614551e-02
      vertex   2.398000e-01 -3.460044e-02 -2.655974e-02
    endloop
  endfacet
  facet normal  1.000000e+00  0.000000e+00  0.000000e+00
    outer loop
      vertex   2.398000e-01 -3.574301e-02 -2.345154e-02
      vertex   2.398000e-01 -3.322656e-02 -2.059675e-02
      vertex   2.398000e-01 -3.376585e-02 -2.079499e-02
    endloop
  endfacet
  facet normal  1.000000e+00  0.000000e+00  0.000000e+00
    outer loop
      vertex   2.398000e-01 -3.574301e-02 -2.345154e-02
      vertex   2.398000e-01 -3.460044e-02 -2.655974e-02
      vertex   2.398000e-01 -3.413952e-02 -2.690279e-02
    endloop
  endfacet
  facet normal  1.000000e+00  0.000000e+00  0.000000e+00
    outer loop
      vertex   2.398000e-01 -3.574301e-02 -2.345154e-02
      vertex   2.398000e-01 -3.208756e-02 -2.047759e-02
      vertex   2.398000e-01 -3.266200e-02 -2.048998e-02
    endloop
  endfacet
  facet normal  1.000000e+00  0.000000e+00  0.000000e+00
    outer loop
      vertex   2.398000e-01 -3.574301e-02 -2.345154e-02
      vertex   2.398000e-01 -3.266200e-02 -2.048998e-02
      vertex   2.398000e-01 -3.322656e-02 -2.059675e-02
    endloop
  endfacet
  facet normal  1.000000e+00  0.000000e+00  0.000000e+00
    outer loop
      vertex   2.398000e-01 -3.574301e-02 -2.345154e-02
      vertex   2.398000e-01 -3.413952e-02 -2.690279e-02
      vertex   2.398000e-01 -3.362842e-02 -2.716529e-02
    endloop
  endfacet
  facet normal  1.000000e+00  0.000000e+00  0.000000e+00
    outer loop
      vertex   2.398000e-01 -3.574301e-02 -2.345154e-02
      vertex   2.398000e-01 -3.362842e-02 -2.716529e-02
      vertex   2.398000e-01 -3.308108e-02 -2.734009e-02
    endloop
  endfacet
  facet normal  1.000000e+00  0.000000e+00  0.000000e+00
    outer loop
      vertex   2.398000e-01 -3.574301e-02 -2.345154e-02
      vertex   2.398000e-01 -3.308108e-02 -2.734009e-02
      vertex   2.398000e-01 -3.251244e-02 -2.742241e-02
    endloop
  endfacet
  facet normal  1.000000e+00  0.000000e+00  0.000000e+00
    outer loop
      vertex   2.398000e-01 -3.574301e-02 -2.345154e-02
      vertex   2.398000e-01 -3.251244e-02 -2.742241e-02
      vertex   2.398000e-01  3.208756e-02 -2.742241e-02
    endloop
  endfacet
  facet normal  1.000000e+00  0.000000e+00  0.000000e+00
    outer loop
      vertex   2.398000e-01 -3.574301e-02 -2.345154e-02
      vertex   2.398000e-01  3.208756e-02 -2.742241e-02
      vertex   2.398000e-01  3.266200e-02 -2.741002e-02
    endloop
  endfacet
  facet normal  1.000000e+00  0.000000e+00  0.000000e+00
    outer loop
      vertex   2.398000e-01 -3.574301e-02 -2.345154e-02
      vertex   2.398000e-01  3.266200e-02 -2.741002e-02
      vertex   2.398000e-01  3.322656e-02 -2.730325e-02
    endloop
  endfacet
  facet normal  1.000000e+00  0.000000e+00  0.000000e+00
    outer loop
      vertex   2.398000e-01 -3.574301e-02 -2.345154e-02
      vertex   2.398000e-01  3.322656e-02 -2.730325e-02
      vertex   2.398000e-01  3.376585e-02 -2.710501e-02
    endloop
  endfacet
  facet normal  1.000000e+00  0.000000e+00  0.000000e+00
    outer loop
      vertex   2.398000e-01 -3.574301e-02 -2.345154e-02
      vertex   2.398000e-01  3.376585e-02 -2.710501e-02
      vertex   2.398000e-01  3.426516e-02 -2.682070e-02
    endloop
  endfacet
  facet normal  1.000000e+00  0.000000e+00  0.000000e+00
    outer loop
      vertex   2.398000e-01 -3.574301e-02 -2.345154e-02
      vertex   2.398000e-01  3.426516e-02 -2.682070e-02
      vertex   2.398000e-01  3.471086e-02 -2.645810e-02
    endloop
  endfacet
  facet normal  1.000000e+00  0.000000e+00  0.000000e+00
    outer loop
      vertex   2.398000e-01 -3.574301e-02 -2.345154e-02
      vertex   2.398000e-01  3.471086e-02 -2.645810e-02
      vertex   2.398000e-01  3.509080e-02 -2.602708e-02
    endloop
  endfacet
  facet normal  1.000000e+00  0.000000e+00  0.000000e+00
    outer loop
      vertex   2.398000e-01 -3.574301e-02 -2.345154e-02
      vertex   2.398000e-01  3.509080e-02 -2.602708e-02
      vertex   2.398000e-01  3.539461e-02 -2.553940e-02
    endloop
  endfacet
  facet normal  1.000000e+00  0.000000e+00  0.000000e+00
    outer loop
      vertex   2.398000e-01 -3.574301e-02 -2.345154e-02
      vertex   2.398000e-01  3.539461e-02 -2.553940e-02
      vertex   2.398000e-01  3.561401e-02 -2.500836e-02
    endloop
  endfacet
  facet normal  1.000000e+00  0.000000e+00  0.000000e+00
    outer loop
      vertex   2.398000e-01 -3.574301e-02 -2.345154e-02
      vertex   2.398000e-01  3.561401e-02 -2.500836e-02
      vertex   2.398000e-01  3.574301e-02 -2.444846e-02
    endloop
  endfacet
  facet normal  1.000000e+00  0.000000e+00  0.000000e+00
    outer loop
      vertex   2.398000e-01 -3.574301e-02 -2.345154e-02
      vertex   2.398000e-01  3.574301e-02 -2.444846e-02
      vertex   2.398000e-01  3.577810e-02 -2.387496e-02
    endloop
  endfacet
  facet normal  1.000000e+00 -0.000000e+00  0.000000e+00
    outer loop
      vertex   2.398000e-01 -3.574301e-02 -2.345154e-02
      vertex   2.398000e-01  3.577810e-02 -2.387496e-02
      vertex   2.398000e-01  3.571831e-02 -2.330351e-02
    endloop
  endfacet
  facet normal  1.000000e+00  0.000000e+00  0.000000e+00
    outer loop
      vertex   2.398000e-01 -3.574301e-02 -2.345154e-02
      vertex   2.398000e-01  3.571831e-02 -2.330351e-02
      vertex   2.398000e-01  3.556528e-02 -2.274969e-02
    endloop
  endfacet
  facet normal  1.000000e+00  0.000000e+00  0.000000e+00
    outer loop
      vertex   2.398000e-01 -3.574301e-02 -2.345154e-02
      vertex   2.398000e-01  3.556528e-02 -2.274969e-02
      vertex   2.398000e-01  3.532318e-02 -2.222862e-02
    endloop
  endfacet
  facet normal  1.000000e+00  0.000000e+00  0.000000e+00
    outer loop
      vertex   2.398000e-01 -3.574301e-02 -2.345154e-02
      vertex   2.398000e-01  3.532318e-02 -2.222862e-02
      vertex   2.398000e-01  3.499862e-02 -2.175449e-02
    endloop
  endfacet
  facet normal  1.000000e+00  0.000000e+00  0.000000e+00
    outer loop
      vertex   2.398000e-01 -3.574301e-02 -2.345154e-02
      vertex   2.398000e-01  3.499862e-02 -2.175449e-02
      vertex   2.398000e-01  3.460044e-02 -2.134026e-02
    endloop
  endfacet
  facet normal  1.000000e+00  0.000000e+00  0.000000e+00
    outer loop
      vertex   2.398000e-01 -3.574301e-02 -2.345154e-02
      vertex   2.398000e-01  3.460044e-02 -2.134026e-02
      vertex   2.398000e-01  3.413952e-02 -2.099721e-02
    endloop
  endfacet
  facet normal  1.000000e+00  0.000000e+00  0.000000e+00
    outer loop
      vertex   2.398000e-01 -3.574301e-02 -2.345154e-02
      vertex   2.398000e-01  3.413952e-02 -2.099721e-02
      vertex   2.398000e-01  3.362842e-02 -2.073471e-02
    endloop
  endfacet
  facet normal  1.000000e+00  0.000000e+00  0.000000e+00
    outer loop
      vertex   2.398000e-01 -3.574301e-02 -2.345154e-02
      vertex   2.398000e-01  3.362842e-02 -2.073471e-02
      vertex   2.398000e-01  3.308108e-02 -2.055991e-02
    endloop
  endfacet
  facet normal  1.000000e+00  0.000000e+00  0.000000e+00
    outer loop
      vertex   2.398000e-01 -3.574301e-02 -2.345154e-02
      vertex   2.398000e-01  3.308108e-02 -2.055991e-02
      vertex   2.398000e-01  3.251244e-02 -2.047759e-02
    endloop
  endfacet
  facet normal  1.000000e+00  0.000000e+00  0.000000e+00
    outer loop
      vertex   2.398000e-01 -3.574301e-02 -2.345154e-02
      vertex   2.398000e-01  3.251244e-02 -2.047759e-02
      vertex   2.398000e-01 -3.208756e-02 -2.047759e-02
    endloop
  endfacet
  facet normal -9.987212e-01  6.449916e-03  5.014434e-02
    outer loop
      vertex  -2.398000e-01  3.253277e-02 -2.047889e-02
      vertex  -2.390000e-01  1.274396e-02 -2.000001e-03
      vertex  -2.390000e-01  1.375623e-02 -2.130207e-03
    endloop
  endfacet
  facet normal -9.990640e-01  3.351947e-06  4.325564e-02
    outer loop
      vertex  -2.398000e-01  3.253277e-02 -2.047889e-02
      vertex  -2.398000e-01 -3.243857e-02 -2.047385e-02
      vertex  -2.390000e-01  1.274396e-02 -2.000001e-03
    endloop
  endfacet
  facet normal -9.925597e-01  1.029671e-01 -6.498592e-02
    outer loop
      vertex  -2.398000e-01  3.507859e-02 -2.604338e-02
      vertex  -2.398000e-01  3.538525e-02 -2.555749e-02
      vertex  -2.390000e-01  4.004352e-02 -3.039543e-02
    endloop
  endfacet
  facet normal -9.927384e-01  8.977206e-02 -8.007201e-02
    outer loop
      vertex  -2.398000e-01  3.507859e-02 -2.604338e-02
      vertex  -2.390000e-01  4.004352e-02 -3.039543e-02
      vertex  -2.398000e-01  3.469613e-02 -2.647217e-02
    endloop
  endfacet
  facet normal -9.924992e-01  1.182714e-01 -3.093785e-02
    outer loop
      vertex  -2.398000e-01  3.560776e-02 -2.502775e-02
      vertex  -2.390000e-01  4.231439e-02 -2.505347e-02
      vertex  -2.390000e-01  4.157200e-02 -2.789153e-02
    endloop
  endfacet
  facet normal -9.927509e-01  1.108114e-01 -4.654454e-02
    outer loop
      vertex  -2.398000e-01  3.560776e-02 -2.502775e-02
      vertex  -2.390000e-01  4.157200e-02 -2.789153e-02
      vertex  -2.398000e-01  3.538525e-02 -2.555749e-02
    endloop
  endfacet
  facet normal -9.925920e-01  1.006552e-01  6.804165e-02
    outer loop
      vertex  -2.398000e-01  3.533321e-02 -2.224635e-02
      vertex  -2.398000e-01  3.501143e-02 -2.177033e-02
      vertex  -2.390000e-01  4.126112e-02 -1.934523e-02
    endloop
  endfacet
  facet normal -9.927284e-01  1.094636e-01  5.008098e-02
    outer loop
      vertex  -2.398000e-01  3.533321e-02 -2.224635e-02
      vertex  -2.390000e-01  4.126112e-02 -1.934523e-02
      vertex  -2.398000e-01  3.557225e-02 -2.276883e-02
    endloop
  endfacet
  facet normal -9.924870e-01  1.222690e-01  4.447645e-03
    outer loop
      vertex  -2.398000e-01  3.577848e-02 -2.389533e-02
      vertex  -2.390000e-01  4.220775e-02 -2.212185e-02
      vertex  -2.390000e-01  4.231439e-02 -2.505347e-02
    endloop
  endfacet
  facet normal -9.986437e-01  7.761531e-03  5.148317e-02
    outer loop
      vertex  -2.398000e-01  3.310092e-02 -2.056454e-02
      vertex  -2.398000e-01  3.253277e-02 -2.047889e-02
      vertex  -2.390000e-01  1.375623e-02 -2.130207e-03
    endloop
  endfacet
  facet normal -9.976034e-01  2.143511e-02  6.578685e-02
    outer loop
      vertex  -2.398000e-01  3.310092e-02 -2.056454e-02
      vertex  -2.390000e-01  1.375623e-02 -2.130207e-03
      vertex  -2.398000e-01  3.364722e-02 -2.074254e-02
    endloop
  endfacet
  facet normal -9.926784e-01  1.166107e-01  3.148759e-02
    outer loop
      vertex  -2.398000e-01  3.572204e-02 -2.332354e-02
      vertex  -2.398000e-01  3.557225e-02 -2.276883e-02
      vertex  -2.390000e-01  4.220775e-02 -2.212185e-02
    endloop
  endfacet
  facet normal -9.926733e-01  1.202449e-01  1.186942e-02
    outer loop
      vertex  -2.398000e-01  3.572204e-02 -2.332354e-02
      vertex  -2.390000e-01  4.220775e-02 -2.212185e-02
      vertex  -2.398000e-01  3.577848e-02 -2.389533e-02
    endloop
  endfacet
  facet normal -9.927311e-01  1.200838e-01 -8.052929e-03
    outer loop
      vertex  -2.398000e-01  3.574003e-02 -2.446862e-02
      vertex  -2.398000e-01  3.577848e-02 -2.389533e-02
      vertex  -2.390000e-01  4.231439e-02 -2.505347e-02
    endloop
  endfacet
  facet normal -9.925843e-01  1.182928e-01 -2.798502e-02
    outer loop
      vertex  -2.398000e-01  3.574003e-02 -2.446862e-02
      vertex  -2.390000e-01  4.231439e-02 -2.505347e-02
      vertex  -2.398000e-01  3.560776e-02 -2.502775e-02
    endloop
  endfacet
  facet normal -1.000000e+00  0.000000e+00  0.000000e+00
    outer loop
      vertex  -2.398000e-01  3.574003e-02 -2.446862e-02
      vertex  -2.398000e-01  3.572204e-02 -2.332354e-02
      vertex  -2.398000e-01  3.577848e-02 -2.389533e-02
    endloop
  endfacet
  facet normal -1.000000e+00  0.000000e+00  0.000000e+00
    outer loop
      vertex  -2.398000e-01  3.574003e-02 -2.446862e-02
      vertex  -2.398000e-01  3.560776e-02 -2.502775e-02
      vertex  -2.398000e-01  3.538525e-02 -2.555749e-02
    endloop
  endfacet
  facet normal -1.000000e+00  0.000000e+00  0.000000e+00
    outer loop
      vertex  -2.398000e-01  3.574003e-02 -2.446862e-02
      vertex  -2.398000e-01  3.538525e-02 -2.555749e-02
      vertex  -2.398000e-01  3.507859e-02 -2.604338e-02
    endloop
  endfacet
  facet normal -1.000000e+00  0.000000e+00  0.000000e+00
    outer loop
      vertex  -2.398000e-01  3.574003e-02 -2.446862e-02
      vertex  -2.398000e-01  3.507859e-02 -2.604338e-02
      vertex  -2.398000e-01  3.469613e-02 -2.647217e-02
    endloop
  endfacet
  facet normal -1.000000e+00  0.000000e+00  0.000000e+00
    outer loop
      vertex  -2.398000e-01  3.574003e-02 -2.446862e-02
      vertex  -2.398000e-01  3.469613e-02 -2.647217e-02
      vertex  -2.398000e-01  3.424831e-02 -2.683216e-02
    endloop
  endfacet
  facet normal -1.000000e+00  0.000000e+00  0.000000e+00
    outer loop
      vertex  -2.398000e-01  3.574003e-02 -2.446862e-02
      vertex  -2.398000e-01  3.424831e-02 -2.683216e-02
      vertex  -2.398000e-01  3.374735e-02 -2.711354e-02
    endloop
  endfacet
  facet normal -1.000000e+00  0.000000e+00  0.000000e+00
    outer loop
      vertex  -2.398000e-01  3.574003e-02 -2.446862e-02
      vertex  -2.398000e-01  3.374735e-02 -2.711354e-02
      vertex  -2.398000e-01  3.320691e-02 -2.730862e-02
    endloop
  endfacet
  facet normal -1.000000e+00  0.000000e+00  0.000000e+00
    outer loop
      vertex  -2.398000e-01  3.574003e-02 -2.446862e-02
      vertex  -2.398000e-01  3.320691e-02 -2.730862e-02
      vertex  -2.398000e-01  3.264173e-02 -2.741208e-02
    endloop
  endfacet
  facet normal -1.000000e+00  0.000000e+00  0.000000e+00
    outer loop
      vertex  -2.398000e-01  3.574003e-02 -2.446862e-02
      vertex  -2.398000e-01  3.264173e-02 -2.741208e-02
      vertex  -2.398000e-01  3.206723e-02 -2.742111e-02
    endloop
  endfacet
  facet normal -1.000000e+00  0.000000e+00  0.000000e+00
    outer loop
      vertex  -2.398000e-01  3.574003e-02 -2.446862e-02
      vertex  -2.398000e-01  3.206723e-02 -2.742111e-02
      vertex  -2.398000e-01 -3.216143e-02 -2.742615e-02
    endloop
  endfacet
  facet normal -1.000000e+00  0.000000e+00  0.000000e+00
    outer loop
      vertex  -2.398000e-01  3.574003e-02 -2.446862e-02
      vertex  -2.398000e-01 -3.216143e-02 -2.742615e-02
      vertex  -2.398000e-01 -3.273547e-02 -2.740154e-02
    endloop
  endfacet
  facet normal -1.000000e+00  0.000000e+00  0.000000e+00
    outer loop
      vertex  -2.398000e-01  3.574003e-02 -2.446862e-02
      vertex  -2.398000e-01 -3.273547e-02 -2.740154e-02
      vertex  -2.398000e-01 -3.329764e-02 -2.728279e-02
    endloop
  endfacet
  facet normal -1.000000e+00  0.000000e+00  0.000000e+00
    outer loop
      vertex  -2.398000e-01  3.574003e-02 -2.446862e-02
      vertex  -2.398000e-01 -3.329764e-02 -2.728279e-02
      vertex  -2.398000e-01 -3.383259e-02 -2.707313e-02
    endloop
  endfacet
  facet normal -1.000000e+00  0.000000e+00  0.000000e+00
    outer loop
      vertex  -2.398000e-01  3.574003e-02 -2.446862e-02
      vertex  -2.398000e-01 -3.383259e-02 -2.707313e-02
      vertex  -2.398000e-01 -3.432574e-02 -2.677828e-02
    endloop
  endfacet
  facet normal -1.000000e+00  0.000000e+00  0.000000e+00
    outer loop
      vertex  -2.398000e-01  3.574003e-02 -2.446862e-02
      vertex  -2.398000e-01 -3.432574e-02 -2.677828e-02
      vertex  -2.398000e-01 -3.476363e-02 -2.640628e-02
    endloop
  endfacet
  facet normal -1.000000e+00  0.000000e+00  0.000000e+00
    outer loop
      vertex  -2.398000e-01  3.574003e-02 -2.446862e-02
      vertex  -2.398000e-01 -3.476363e-02 -2.640628e-02
      vertex  -2.398000e-01 -3.513432e-02 -2.596728e-02
    endloop
  endfacet
  facet normal -1.000000e+00  0.000000e+00  0.000000e+00
    outer loop
      vertex  -2.398000e-01  3.574003e-02 -2.446862e-02
      vertex  -2.398000e-01 -3.513432e-02 -2.596728e-02
      vertex  -2.398000e-01 -3.542770e-02 -2.547325e-02
    endloop
  endfacet
  facet normal -1.000000e+00  0.000000e+00  0.000000e+00
    outer loop
      vertex  -2.398000e-01  3.574003e-02 -2.446862e-02
      vertex  -2.398000e-01 -3.542770e-02 -2.547325e-02
      vertex  -2.398000e-01 -3.563576e-02 -2.493767e-02
    endloop
  endfacet
  facet normal -1.000000e+00 -0.000000e+00  0.000000e+00
    outer loop
      vertex  -2.398000e-01  3.574003e-02 -2.446862e-02
      vertex  -2.398000e-01 -3.563576e-02 -2.493767e-02
      vertex  -2.398000e-01 -3.575283e-02 -2.437515e-02
    endloop
  endfacet
  facet normal -1.000000e+00  0.000000e+00  0.000000e+00
    outer loop
      vertex  -2.398000e-01  3.574003e-02 -2.446862e-02
      vertex  -2.398000e-01 -3.575283e-02 -2.437515e-02
      vertex  -2.398000e-01 -3.577572e-02 -2.380104e-02
    endloop
  endfacet
  facet normal -1.000000e+00  0.000000e+00  0.000000e+00
    outer loop
      vertex  -2.398000e-01  3.574003e-02 -2.446862e-02
      vertex  -2.398000e-01 -3.577572e-02 -2.380104e-02
      vertex  -2.398000e-01 -3.570379e-02 -2.323098e-02
    endloop
  endfacet
  facet normal -1.000000e+00  0.000000e+00  0.000000e+00
    outer loop
      vertex  -2.398000e-01  3.574003e-02 -2.446862e-02
      vertex  -2.398000e-01 -3.570379e-02 -2.323098e-02
      vertex  -2.398000e-01 -3.553902e-02 -2.268055e-02
    endloop
  endfacet
  facet normal -1.000000e+00  0.000000e+00  0.000000e+00
    outer loop
      vertex  -2.398000e-01  3.574003e-02 -2.446862e-02
      vertex  -2.398000e-01 -3.553902e-02 -2.268055e-02
      vertex  -2.398000e-01 -3.528590e-02 -2.216473e-02
    endloop
  endfacet
  facet normal -1.000000e+00  0.000000e+00  0.000000e+00
    outer loop
      vertex  -2.398000e-01  3.574003e-02 -2.446862e-02
      vertex  -2.398000e-01 -3.528590e-02 -2.216473e-02
      vertex  -2.398000e-01 -3.495133e-02 -2.169762e-02
    endloop
  endfacet
  facet normal -1.000000e+00  0.000000e+00  0.000000e+00
    outer loop
      vertex  -2.398000e-01  3.574003e-02 -2.446862e-02
      vertex  -2.398000e-01 -3.495133e-02 -2.169762e-02
      vertex  -2.398000e-01 -3.454444e-02 -2.129194e-02
    endloop
  endfacet
  facet normal -1.000000e+00  0.000000e+00  0.000000e+00
    outer loop
      vertex  -2.398000e-01  3.574003e-02 -2.446862e-02
      vertex  -2.398000e-01 -3.454444e-02 -2.129194e-02
      vertex  -2.398000e-01 -3.407633e-02 -2.095877e-02
    endloop
  endfacet
  facet normal -1.000000e+00  0.000000e+00  0.000000e+00
    outer loop
      vertex  -2.398000e-01  3.574003e-02 -2.446862e-02
      vertex  -2.398000e-01 -3.407633e-02 -2.095877e-02
      vertex  -2.398000e-01 -3.355976e-02 -2.070720e-02
    endloop
  endfacet
  facet normal -1.000000e+00  0.000000e+00  0.000000e+00
    outer loop
      vertex  -2.398000e-01  3.574003e-02 -2.446862e-02
      vertex  -2.398000e-01 -3.355976e-02 -2.070720e-02
      vertex  -2.398000e-01 -3.300883e-02 -2.054407e-02
    endloop
  endfacet
  facet normal -1.000000e+00  0.000000e+00  0.000000e+00
    outer loop
      vertex  -2.398000e-01  3.574003e-02 -2.446862e-02
      vertex  -2.398000e-01 -3.300883e-02 -2.054407e-02
      vertex  -2.398000e-01 -3.243857e-02 -2.047385e-02
    endloop
  endfacet
  facet normal -1.000000e+00  0.000000e+00  0.000000e+00
    outer loop
      vertex  -2.398000e-01  3.574003e-02 -2.446862e-02
      vertex  -2.398000e-01 -3.243857e-02 -2.047385e-02
      vertex  -2.398000e-01  3.253277e-02 -2.047889e-02
    endloop
  endfacet
  facet normal -1.000000e+00  0.000000e+00  0.000000e+00
    outer loop
      vertex  -2.398000e-01  3.574003e-02 -2.446862e-02
      vertex  -2.398000e-01  3.253277e-02 -2.047889e-02
      vertex  -2.398000e-01  3.310092e-02 -2.056454e-02
    endloop
  endfacet
  facet normal -1.000000e+00  0.000000e+00  0.000000e+00
    outer loop
      vertex  -2.398000e-01  3.574003e-02 -2.446862e-02
      vertex  -2.398000e-01  3.310092e-02 -2.056454e-02
      vertex  -2.398000e-01  3.364722e-02 -2.074254e-02
    endloop
  endfacet
  facet normal -1.000000e+00  0.000000e+00  0.000000e+00
    outer loop
      vertex  -2.398000e-01  3.574003e-02 -2.446862e-02
      vertex  -2.398000e-01  3.364722e-02 -2.074254e-02
      vertex  -2.398000e-01  3.415678e-02 -2.100804e-02
    endloop
  endfacet
  facet normal -1.000000e+00  0.000000e+00  0.000000e+00
    outer loop
      vertex  -2.398000e-01  3.574003e-02 -2.446862e-02
      vertex  -2.398000e-01  3.415678e-02 -2.100804e-02
      vertex  -2.398000e-01  3.461569e-02 -2.135378e-02
    endloop
  endfacet
  facet normal -1.000000e+00  0.000000e+00  0.000000e+00
    outer loop
      vertex  -2.398000e-01  3.574003e-02 -2.446862e-02
      vertex  -2.398000e-01  3.461569e-02 -2.135378e-02
      vertex  -2.398000e-01  3.501143e-02 -2.177033e-02
    endloop
  endfacet
  facet normal -1.000000e+00  0.000000e+00  0.000000e+00
    outer loop
      vertex  -2.398000e-01  3.574003e-02 -2.446862e-02
      vertex  -2.398000e-01  3.501143e-02 -2.177033e-02
      vertex  -2.398000e-01  3.533321e-02 -2.224635e-02
    endloop
  endfacet
  facet normal -1.000000e+00  0.000000e+00  0.000000e+00
    outer loop
      vertex  -2.398000e-01  3.574003e-02 -2.446862e-02
      vertex  -2.398000e-01  3.533321e-02 -2.224635e-02
      vertex  -2.398000e-01  3.557225e-02 -2.276883e-02
    endloop
  endfacet
  facet normal -1.000000e+00  0.000000e+00  0.000000e+00
    outer loop
      vertex  -2.398000e-01  3.574003e-02 -2.446862e-02
      vertex  -2.398000e-01  3.557225e-02 -2.276883e-02
      vertex  -2.398000e-01  3.572204e-02 -2.332354e-02
    endloop
  endfacet
endsolid vcg
